<svg width="78" height="44" viewBox="0 0 78 44" fill="none" xmlns="http://www.w3.org/2000/svg">
<path d="M37.1299 42.8059C52.7041 42.8059 60.9535 41.0426 65.3027 38.7102C67.4691 37.5484 68.6571 36.2508 69.3086 34.968C69.9616 33.6822 70.0889 32.3847 70.0889 31.1965C70.0889 29.984 69.9508 29.3528 69.3936 28.9641C69.1004 28.7597 68.6668 28.6054 68.0156 28.5003C67.3663 28.3954 66.5223 28.343 65.4238 28.3284C63.2259 28.2992 60.0565 28.4201 55.4756 28.5491C50.8986 28.6779 44.9236 28.8137 37.1299 28.8137C29.3362 28.8137 23.4447 28.678 18.9922 28.5491C14.5351 28.4201 11.5325 28.2992 9.50098 28.3284C8.4855 28.343 7.72685 28.3953 7.1582 28.4993C6.5883 28.6035 6.23569 28.7548 6.00879 28.9485C5.78916 29.136 5.66003 29.3859 5.58691 29.7493C5.51199 30.1218 5.5 30.5902 5.5 31.1965C5.5 32.3994 5.54706 33.6993 6.08105 34.9866C6.61176 36.2657 7.63458 37.5569 9.62988 38.7141C13.6425 41.0413 21.5531 42.8059 37.1299 42.8059Z" fill="#E9AD5A" stroke="black" stroke-width="0.529417"/>
<path d="M53.8274 23.826L54.4182 23.8445C54.5966 23.8533 54.7669 23.8642 54.9592 23.8748C55.3451 23.896 55.8691 23.9199 56.8234 23.9334C57.786 23.9469 59.1788 23.953 60.5822 23.9597C61.9817 23.9665 63.3927 23.9738 64.3801 23.9871H64.4016L64.4221 23.9881C66.3445 24.0891 67.3335 24.1751 68.0041 24.2615L68.591 24.3494L68.6613 24.3611C69.1218 24.1723 69.6661 24.3295 69.9484 24.7615C70.0301 24.8866 70.082 25.0225 70.1057 25.1609L71.969 25.782C72.359 25.9121 72.7297 26.0905 73.0149 26.2215C73.3224 26.3627 73.5743 26.4704 73.8342 26.5398L74.3635 26.656C74.5837 26.704 74.862 26.7706 75.1428 26.8806C75.7369 27.1136 76.3838 27.5605 76.6984 28.4422L76.7531 28.6121C76.8542 28.9656 76.9049 29.3937 76.8459 29.7937L76.8068 29.991C76.7365 30.2714 76.6189 30.8727 76.3967 31.3601C76.1636 31.8711 75.7338 32.457 74.9475 32.6814L74.7854 32.7215C74.3999 32.802 73.8811 32.8277 73.4455 32.8152L73.0461 32.7898C72.3925 32.7238 71.7003 32.6749 71.1535 32.7078C70.9821 32.7181 70.8478 32.736 70.7473 32.7556C70.7425 32.7858 70.7383 32.8197 70.7307 32.8553L70.6809 33.0398C70.5335 33.48 70.276 34.0513 69.9162 34.575C69.5915 35.0475 69.1064 35.5933 68.4416 35.8865L68.3059 35.9422C67.9897 36.0606 67.3829 36.2877 66.7531 36.3875C66.2328 36.4699 65.328 36.5276 64.6399 35.949L64.5051 35.824C64.2708 35.586 64.145 35.2899 64.0832 35.115L64.0412 34.9871C63.8792 34.5013 63.5978 34.0188 63.2531 33.7586L63.1018 33.6609C62.5284 33.3563 61.7178 32.9785 60.927 32.6394L60.1525 32.3172C59.6586 32.1191 59.2333 31.8575 58.8996 31.658C58.6342 31.4993 58.4127 31.3714 58.1906 31.2713L57.967 31.1804C57.8886 31.1523 57.7629 31.1238 57.5334 31.0789C57.3366 31.0404 57.0562 30.9883 56.7922 30.9109C56.6303 30.8635 56.4092 30.7862 56.1838 30.6599C56.1265 31.0898 56.0654 31.5243 55.9982 31.9178L55.9729 32.0662L55.9074 32.201C55.7756 32.4737 55.5332 33.0506 55.2629 33.4881C55.0167 33.8864 54.5619 34.4953 53.801 34.6804L53.6447 34.7117C52.9108 34.8266 52.0859 34.787 51.3781 34.6873C50.7673 34.6012 50.1555 34.458 49.6936 34.2771L49.5051 34.197C49.2533 34.0814 48.8737 33.9482 48.4777 33.8777C48.1185 33.8138 47.8253 33.8155 47.6193 33.865L47.5363 33.8894C47.3081 33.9686 47.1023 34.1086 46.7395 34.3553C46.4612 34.5444 46.0661 34.8133 45.5764 34.9773L45.3606 35.0408C44.6324 35.2243 43.8296 35.3098 43.132 35.3269C42.5464 35.3412 41.9431 35.31 41.4856 35.2097L41.299 35.1619C41.1714 35.1246 41.0346 35.0934 40.8498 35.0496C40.6785 35.009 40.4687 34.9587 40.258 34.8904C39.8895 34.7709 39.4324 34.5722 39.051 34.1795L38.8928 33.9988C38.7875 33.8658 38.6599 33.6755 38.5754 33.4002C38.4981 33.1479 38.4737 32.8796 38.4777 32.5974L38.4787 32.5252C38.4592 32.519 38.4398 32.5139 38.4211 32.5076C38.3209 32.4739 38.2169 32.4331 38.1604 32.4119L38.0217 32.365C37.9231 32.3378 37.8289 32.3185 37.6789 32.2859C37.5434 32.2564 37.366 32.2162 37.1789 32.1541C37.1592 32.1517 37.1366 32.1478 37.1115 32.1453C36.9884 32.1328 36.8339 32.1226 36.6633 32.116C36.4041 32.106 36.1292 32.1056 35.8908 32.115L35.6662 32.1277C35.4709 32.1429 35.3047 32.1626 35.1428 32.1844L34.6418 32.2527C34.553 32.2639 34.463 32.2825 34.3176 32.3103C34.2516 32.323 34.174 32.3367 34.09 32.3504L33.8186 32.3865C33.7502 32.3932 33.6791 32.3973 33.6125 32.4021L33.6623 32.5222C33.6877 32.5757 33.7217 32.6435 33.7688 32.7332C33.851 32.8897 33.9746 33.1179 34.0783 33.3679C34.2745 33.8408 34.4197 34.4302 34.3098 35.1404L34.2463 35.4519C34.2058 35.6136 34.1793 35.7597 34.1301 35.9929C34.086 36.2017 34.0276 36.4573 33.9338 36.7166C33.7472 37.2323 33.4153 37.7785 32.7785 38.1648L32.6467 38.24C32.1192 38.523 30.9567 38.8539 29.5686 38.5808L29.2883 38.5183C28.7855 38.3917 28.4442 38.173 28.1936 37.9734C28.109 37.9061 27.9651 37.7818 27.9455 37.7654L27.9094 37.7342C27.3515 37.4429 26.863 37.1889 26.3899 37.0193L26.1877 36.9519C25.7137 36.8063 25.1241 36.6441 24.5715 36.4724L24.0363 36.2976C23.8554 36.235 23.7293 36.2039 23.4582 36.1189C23.2235 36.0454 22.9442 35.9488 22.6516 35.8015C22.1157 35.5317 21.5963 35.1246 21.1213 34.4715L20.9201 34.1756C20.5747 33.6324 20.1315 32.9627 19.7268 32.3103C19.6513 32.7203 19.5601 33.09 19.4348 33.4236L19.3977 33.5232L19.341 33.6131C18.9381 34.2572 18.4571 34.8725 17.6916 35.5154L17.3459 35.7928C16.9741 36.0775 16.7124 36.3307 16.3186 36.6687C15.9923 36.9487 15.6232 37.2408 15.1565 37.5115L14.9504 37.6267C14.4196 37.9092 13.1994 38.9253 11.4563 38.5847L11.2854 38.5476C10.4539 38.3462 9.7234 37.9904 9.09298 37.4021L8.8293 37.1355C8.60769 36.8939 8.33315 36.5079 8.17012 36.0252C8.00209 35.5276 7.93802 34.8725 8.25216 34.2019L8.43282 33.8474C8.49374 33.7363 8.55396 33.6325 8.6086 33.5388C8.72532 33.3387 8.8146 33.189 8.88985 33.0388C8.92509 32.9685 8.95329 32.9051 8.97579 32.8474L8.98555 32.8152C8.96231 32.8164 8.94341 32.8184 8.92989 32.8201L8.91231 32.822C8.20745 32.9872 7.74292 33.1177 7.34102 33.3455L7.17208 33.45C7.06346 33.5224 6.94612 33.6164 6.78829 33.7478C6.64344 33.8685 6.45424 34.0297 6.25509 34.1765C5.89667 34.4408 5.41762 34.728 4.80196 34.826L4.5295 34.8562C4.04795 34.8851 3.56988 34.881 3.14669 34.8201C2.81332 34.7721 2.37284 34.6706 2.00606 34.406L1.85372 34.282C1.23877 33.7179 0.810861 32.5985 1.08419 31.3924L1.15938 31.073C1.34141 30.3252 1.5963 29.5501 2.22872 28.8201L2.467 28.5613C3.03652 27.981 3.69039 27.5507 4.23555 27.1873C4.6225 26.9294 5.01417 26.7324 5.36934 26.5974C5.66311 26.4858 5.99355 26.3928 6.30489 26.3728C6.49739 26.1728 6.76799 26.0487 7.06759 26.0486H8.87032C10.5707 26.0486 13.9007 26.0476 15.6906 26.0213L16.4641 25.9998C18.1203 25.9298 18.7851 25.7312 19.5578 25.6072L20.008 25.5232C20.1611 25.4917 20.3197 25.4572 20.4885 25.4207C20.8128 25.3506 21.1757 25.2743 21.5481 25.2273L22.051 25.1492C22.2285 25.1176 22.4162 25.0812 22.6135 25.0418C22.9952 24.9654 23.4218 24.8753 23.8293 24.8054L24.3205 24.739C24.8539 24.6805 25.5018 24.6455 26.1535 24.615C27.0551 24.5728 28.009 24.5376 28.8791 24.4724L29.7033 24.4236C30.5539 24.3848 31.5169 24.3678 32.8899 24.3094L33.5119 24.2898C35.0741 24.2529 37.3332 24.2766 38.5529 24.2547C39.2733 24.2417 39.6832 24.2227 40.1018 24.2029C40.5284 24.1828 40.965 24.1621 41.7229 24.1482C43.2537 24.1201 45.9532 24.1211 47.5832 24.0681L48.3176 24.0388C50.039 23.9574 51.8246 23.8027 53.8274 23.826ZM53.7756 28.5115L54.177 29.6697L54.1779 29.6687L53.8479 28.7166L53.7756 28.5105V28.5115Z" fill="#82B248"/>
<path d="M53.8274 23.826L53.8357 23.5613L53.8304 23.5613L53.8274 23.826ZM54.4182 23.8445L54.4312 23.5801L54.4265 23.5799L54.4182 23.8445ZM54.9592 23.8748L54.9446 24.1391L54.9446 24.1391L54.9592 23.8748ZM56.8234 23.9334L56.8197 24.1981L56.8197 24.1981L56.8234 23.9334ZM60.5822 23.9597L60.5835 23.695L60.5835 23.695L60.5822 23.9597ZM64.3801 23.9871L64.3765 24.2518H64.3801V23.9871ZM64.4016 23.9871L64.4142 23.7224H64.4016V23.9871ZM64.4221 23.9881L64.436 23.7237L64.4347 23.7237L64.4221 23.9881ZM68.0041 24.2615L68.0433 23.9997L68.0379 23.999L68.0041 24.2615ZM68.591 24.3494L68.6345 24.0883L68.6302 24.0876L68.591 24.3494ZM68.6613 24.3611L68.6178 24.6222L68.6921 24.6346L68.7618 24.606L68.6613 24.3611ZM69.9484 24.7615L70.1701 24.6168L70.17 24.6167L69.9484 24.7615ZM70.1057 25.1609L69.8447 25.2055L69.8715 25.3619L70.022 25.412L70.1057 25.1609ZM71.969 25.782L72.0527 25.5309L72.0527 25.5309L71.969 25.782ZM73.0149 26.2215L72.9044 26.462L72.9044 26.462L73.0149 26.2215ZM73.8342 26.5398L73.7658 26.7958L73.7774 26.7984L73.8342 26.5398ZM74.3635 26.656L74.3067 26.9146L74.3071 26.9147L74.3635 26.656ZM75.1428 26.8806L75.2394 26.6342L75.2394 26.6342L75.1428 26.8806ZM76.6984 28.4422L76.9505 28.361L76.9478 28.3532L76.6984 28.4422ZM76.7531 28.6121L77.0078 28.5393L77.0051 28.531L76.7531 28.6121ZM76.8459 29.7937L77.1059 29.8452L77.1078 29.8324L76.8459 29.7937ZM76.8068 29.991L77.0639 30.0555L77.0665 30.0424L76.8068 29.991ZM76.3967 31.3601L76.6375 31.47L76.6375 31.47L76.3967 31.3601ZM74.9475 32.6814L75.011 32.9386L75.0201 32.936L74.9475 32.6814ZM74.7854 32.7215L74.8395 32.9808L74.8488 32.9784L74.7854 32.7215ZM73.4455 32.8152L73.4287 33.0795L73.4379 33.0798L73.4455 32.8152ZM73.0461 32.7898L73.0195 33.0534L73.0293 33.054L73.0461 32.7898ZM71.1535 32.7078L71.1376 32.4436L71.1376 32.4436L71.1535 32.7078ZM70.7473 32.7556L70.6964 32.4959L70.515 32.5314L70.4859 32.7139L70.7473 32.7556ZM70.7307 32.8553L70.9862 32.9242L70.9881 32.9174L70.9896 32.9104L70.7307 32.8553ZM70.6809 33.0398L70.9319 33.1239L70.9344 33.1164L70.9364 33.1088L70.6809 33.0398ZM69.9162 34.575L70.1344 34.7249L70.1344 34.7249L69.9162 34.575ZM68.4416 35.8865L68.5421 36.1315L68.5484 36.1287L68.4416 35.8865ZM68.3059 35.9422L68.3988 36.1902L68.4063 36.1871L68.3059 35.9422ZM66.7531 36.3875L66.7945 36.6489L66.7946 36.6489L66.7531 36.3875ZM64.6399 35.949L64.4596 36.1433L64.4695 36.1516L64.6399 35.949ZM64.5051 35.824L64.3162 36.0099L64.3251 36.0181L64.5051 35.824ZM64.0832 35.115L63.8316 35.1976L63.8336 35.2032L64.0832 35.115ZM64.0412 34.9871L64.2927 34.9045L64.2923 34.9033L64.0412 34.9871ZM63.2531 33.7586L63.4126 33.5473L63.4048 33.5414L63.3966 33.5361L63.2531 33.7586ZM63.1018 33.6609L63.2453 33.4385L63.2359 33.4324L63.226 33.4272L63.1018 33.6609ZM60.927 32.6394L61.0313 32.3961L61.0287 32.395L60.927 32.6394ZM60.1525 32.3172L60.2543 32.0728L60.2511 32.0715L60.1525 32.3172ZM58.8996 31.658L59.0354 31.4308L59.0354 31.4308L58.8996 31.658ZM58.1906 31.2713L58.2995 31.0298L58.2902 31.026L58.1906 31.2713ZM57.967 31.1804L58.0667 30.935L58.0565 30.9313L57.967 31.1804ZM57.5334 31.0789L57.5842 30.8191L57.5842 30.8191L57.5334 31.0789ZM56.7922 30.9109L56.7177 31.1649L56.7178 31.1649L56.7922 30.9109ZM56.1838 30.6599L56.3131 30.429L55.9729 30.2385L55.9214 30.6249L56.1838 30.6599ZM55.9982 31.9178L56.2592 31.9624L56.2592 31.9623L55.9982 31.9178ZM55.9729 32.0662L56.211 32.1818L56.2274 32.1479L56.2338 32.1108L55.9729 32.0662ZM55.9074 32.201L55.6693 32.0853L55.6691 32.0858L55.9074 32.201ZM55.2629 33.4881L55.4881 33.6272L55.4881 33.6272L55.2629 33.4881ZM53.801 34.6804L53.8529 34.9402L53.8636 34.9377L53.801 34.6804ZM53.6447 34.7117L53.6857 34.9735L53.6966 34.9713L53.6447 34.7117ZM51.3781 34.6873L51.3412 34.9494L51.3412 34.9494L51.3781 34.6873ZM49.6936 34.2771L49.59 34.5209L49.5971 34.5236L49.6936 34.2771ZM49.5051 34.197L49.3946 34.4377L49.4016 34.4407L49.5051 34.197ZM48.4777 33.8777L48.5241 33.6171L48.5241 33.6171L48.4777 33.8777ZM47.6193 33.865L47.5574 33.6073L47.5447 33.6111L47.6193 33.865ZM47.5363 33.8894L47.4616 33.6352L47.4496 33.6393L47.5363 33.8894ZM46.7395 34.3553L46.5906 34.1364L46.5906 34.1364L46.7395 34.3553ZM45.5764 34.9773L45.6511 35.2315L45.6604 35.2283L45.5764 34.9773ZM45.3606 35.0408L45.4253 35.2977L45.4352 35.2948L45.3606 35.0408ZM43.132 35.3269L43.1385 35.5916L43.1385 35.5916L43.132 35.3269ZM41.4856 35.2097L41.4197 35.4663L41.4289 35.4683L41.4856 35.2097ZM41.299 35.1619L41.2248 35.4161L41.2333 35.4183L41.299 35.1619ZM40.8498 35.0496L40.7888 35.3072L40.7888 35.3072L40.8498 35.0496ZM40.258 34.8904L40.1764 35.1422L40.1764 35.1422L40.258 34.8904ZM39.051 34.1795L38.8516 34.3541L38.8611 34.3639L39.051 34.1795ZM38.8928 33.9988L38.6849 34.1633L38.6936 34.1732L38.8928 33.9988ZM38.5754 33.4002L38.3223 33.4778L38.3223 33.4778L38.5754 33.4002ZM38.4777 32.5974L38.7424 32.6012L38.7424 32.601L38.4777 32.5974ZM38.4787 32.5252L38.7434 32.5288L38.7461 32.3318L38.5582 32.2727L38.4787 32.5252ZM38.4211 32.5076L38.3366 32.7585L38.3367 32.7585L38.4211 32.5076ZM38.1604 32.4119L38.2533 32.1639L38.2451 32.1611L38.1604 32.4119ZM38.0217 32.365L38.1065 32.1142L38.0993 32.1118L38.0921 32.1099L38.0217 32.365ZM37.6789 32.2859L37.6227 32.5446L37.6227 32.5446L37.6789 32.2859ZM37.1789 32.1541L37.2623 31.9029L37.237 31.8944L37.2104 31.8913L37.1789 32.1541ZM37.1115 32.1453L37.1383 31.8819L37.1382 31.8819L37.1115 32.1453ZM36.6633 32.116L36.6735 31.8515L36.6735 31.8515L36.6633 32.116ZM35.8908 32.115L35.8803 31.8505L35.8759 31.8507L35.8908 32.115ZM35.6662 32.1277L35.6513 31.8634L35.6457 31.8638L35.6662 32.1277ZM35.1428 32.1844L35.1075 31.922L35.107 31.9221L35.1428 32.1844ZM34.6418 32.2527L34.6749 32.5154L34.6776 32.515L34.6418 32.2527ZM34.3176 32.3103L34.3674 32.5703L34.3674 32.5703L34.3176 32.3103ZM34.09 32.3504L34.125 32.6129L34.1326 32.6116L34.09 32.3504ZM33.8186 32.3865L33.8443 32.6501L33.8535 32.6489L33.8186 32.3865ZM33.6125 32.4021L33.5935 32.1381L33.2274 32.1645L33.368 32.5035L33.6125 32.4021ZM33.6623 32.5222L33.4175 32.6238L33.4231 32.6356L33.6623 32.5222ZM33.7688 32.7332L33.5344 32.8563L33.5344 32.8563L33.7688 32.7332ZM34.0783 33.3679L34.3228 33.2665L34.3228 33.2665L34.0783 33.3679ZM34.3098 35.1404L34.5694 35.1933L34.5714 35.1809L34.3098 35.1404ZM34.2463 35.4519L34.5033 35.5164L34.5057 35.5048L34.2463 35.4519ZM34.1301 35.9929L34.3891 36.0476L34.3891 36.0476L34.1301 35.9929ZM33.9338 36.7166L34.1827 36.8066L34.1827 36.8066L33.9338 36.7166ZM32.7785 38.1648L32.9097 38.3948L32.9158 38.3911L32.7785 38.1648ZM32.6467 38.24L32.7719 38.4734L32.7778 38.47L32.6467 38.24ZM29.5686 38.5808L29.5109 38.8393L29.5175 38.8406L29.5686 38.5808ZM29.2883 38.5183L29.2236 38.7751L29.2307 38.7767L29.2883 38.5183ZM28.1936 37.9734L28.0286 38.1805L28.0287 38.1805L28.1936 37.9734ZM27.9455 37.7654L27.7723 37.9657L27.7756 37.9684L27.9455 37.7654ZM27.9094 37.7342L28.0825 37.5339L28.0592 37.5138L28.0319 37.4995L27.9094 37.7342ZM26.3899 37.0193L26.4792 36.7701L26.4736 36.7682L26.3899 37.0193ZM26.1877 36.9519L26.2714 36.7007L26.2654 36.6989L26.1877 36.9519ZM24.5715 36.4724L24.4893 36.7241L24.493 36.7252L24.5715 36.4724ZM24.0363 36.2976L23.9497 36.5478L23.9541 36.5493L24.0363 36.2976ZM23.4582 36.1189L23.3791 36.3715L23.3791 36.3715L23.4582 36.1189ZM22.6516 35.8015L22.5325 36.038L22.5326 36.038L22.6516 35.8015ZM21.1213 34.4715L20.9023 34.6204L20.9072 34.6272L21.1213 34.4715ZM20.9201 34.1756L20.6967 34.3177L20.7012 34.3244L20.9201 34.1756ZM19.7268 32.3103L19.9517 32.1708L19.5905 31.5886L19.4664 32.2624L19.7268 32.3103ZM19.4348 33.4236L19.187 33.3305L19.1867 33.3312L19.4348 33.4236ZM19.3977 33.5232L19.6216 33.6644L19.6362 33.6413L19.6457 33.6156L19.3977 33.5232ZM19.341 33.6131L19.1171 33.4719L19.1166 33.4727L19.341 33.6131ZM17.6916 35.5154L17.8573 35.7219L17.8618 35.7181L17.6916 35.5154ZM17.3459 35.7928L17.5069 36.0029L17.5116 35.9992L17.3459 35.7928ZM16.3186 36.6687L16.491 36.8696L16.491 36.8696L16.3186 36.6687ZM15.1565 37.5115L15.2857 37.7426L15.2893 37.7405L15.1565 37.5115ZM14.9504 37.6267L15.0748 37.8605L15.0796 37.8578L14.9504 37.6267ZM11.4563 38.5847L11.4001 38.8435L11.4055 38.8445L11.4563 38.5847ZM11.2854 38.5476L11.223 38.805L11.2292 38.8063L11.2854 38.5476ZM9.09298 37.4021L8.90462 37.5884L8.91238 37.5957L9.09298 37.4021ZM8.8293 37.1355L8.6341 37.3146L8.6411 37.3217L8.8293 37.1355ZM8.17012 36.0252L7.91933 36.1099L7.91933 36.1099L8.17012 36.0252ZM8.25216 34.2019L8.01618 34.0817L8.01245 34.0896L8.25216 34.2019ZM8.43282 33.8474L8.20059 33.7202L8.19697 33.7272L8.43282 33.8474ZM8.6086 33.5388L8.37994 33.4055L8.37993 33.4055L8.6086 33.5388ZM8.88985 33.0388L9.1265 33.1575L9.12652 33.1574L8.88985 33.0388ZM8.97579 32.8474L9.22237 32.9437L9.22613 32.9341L9.22912 32.9242L8.97579 32.8474ZM8.98555 32.8152L9.23889 32.892L9.34804 32.5318L8.97214 32.5508L8.98555 32.8152ZM8.92989 32.8201L8.95913 33.0832L8.96344 33.0827L8.92989 32.8201ZM8.91231 32.822L8.88308 32.559L8.86735 32.5607L8.85194 32.5643L8.91231 32.822ZM7.34102 33.3455L7.21041 33.115L7.20178 33.1204L7.34102 33.3455ZM7.17208 33.45L7.03276 33.2247L7.02524 33.2297L7.17208 33.45ZM6.78829 33.7478L6.61887 33.5444L6.61886 33.5444L6.78829 33.7478ZM6.25509 34.1765L6.41219 34.3896L6.41221 34.3896L6.25509 34.1765ZM4.80196 34.826L4.83123 35.0893L4.84356 35.0874L4.80196 34.826ZM4.5295 34.8562L4.54539 35.1208L4.55873 35.1193L4.5295 34.8562ZM3.14669 34.8201L3.109 35.0821L3.10901 35.0821L3.14669 34.8201ZM2.00606 34.406L1.83894 34.6113L1.84493 34.6162L1.85119 34.6207L2.00606 34.406ZM1.85372 34.282L1.67478 34.4771L1.68054 34.4824L1.6866 34.4873L1.85372 34.282ZM1.08419 31.3924L0.826517 31.3317L0.826025 31.3339L1.08419 31.3924ZM1.15938 31.073L0.902177 31.0104L0.901721 31.0124L1.15938 31.073ZM2.22872 28.8201L2.0339 28.6407L2.02865 28.6468L2.22872 28.8201ZM2.467 28.5613L2.27798 28.3758L2.27227 28.382L2.467 28.5613ZM4.23555 27.1873L4.08875 26.967L4.08872 26.967L4.23555 27.1873ZM5.36934 26.5974L5.27533 26.35L5.27531 26.35L5.36934 26.5974ZM6.30489 26.3728L6.32185 26.637L6.42438 26.6304L6.49562 26.5564L6.30489 26.3728ZM7.06759 26.0486L7.06759 25.7839L7.06751 25.7839L7.06759 26.0486ZM15.6906 26.0213L15.6945 26.286L15.698 26.2859L15.6906 26.0213ZM16.4641 25.9998L16.4714 26.2644L16.4752 26.2643L16.4641 25.9998ZM19.5578 25.6072L19.5998 25.8687L19.6064 25.8674L19.5578 25.6072ZM20.008 25.5232L20.0566 25.7835L20.0615 25.7825L20.008 25.5232ZM20.4885 25.4207L20.4325 25.162L20.4325 25.162L20.4885 25.4207ZM21.5481 25.2273L21.5812 25.4901L21.5887 25.4889L21.5481 25.2273ZM22.051 25.1492L22.0916 25.4108L22.0973 25.4098L22.051 25.1492ZM22.6135 25.0418L22.6654 25.3013L22.6654 25.3013L22.6135 25.0418ZM23.8293 24.8054L23.7938 24.543L23.7846 24.5445L23.8293 24.8054ZM24.3205 24.739L24.2916 24.4758L24.2851 24.4767L24.3205 24.739ZM26.1535 24.615L26.1411 24.3506L26.1411 24.3506L26.1535 24.615ZM28.8791 24.4724L28.8635 24.2082L28.8593 24.2085L28.8791 24.4724ZM29.7033 24.4236L29.6913 24.1592L29.6877 24.1594L29.7033 24.4236ZM32.8899 24.3094L32.8815 24.0448L32.8786 24.0449L32.8899 24.3094ZM33.5119 24.2898L33.5057 24.0252L33.5036 24.0252L33.5119 24.2898ZM38.5529 24.2547L38.5577 24.5193L38.5577 24.5193L38.5529 24.2547ZM40.1018 24.2029L40.1143 24.4673L40.1143 24.4673L40.1018 24.2029ZM41.7229 24.1482L41.718 23.8836L41.718 23.8836L41.7229 24.1482ZM47.5832 24.0681L47.5918 24.3327L47.5938 24.3326L47.5832 24.0681ZM48.3176 24.0388L48.3281 24.3034L48.3301 24.3033L48.3176 24.0388ZM53.7756 28.5115H53.5109V28.5561L53.5255 28.5982L53.7756 28.5115ZM54.177 29.6697L53.9268 29.7564L54.0653 30.1558L54.3641 29.8569L54.177 29.6697ZM54.1779 29.6687L54.3651 29.8559L54.4823 29.7387L54.428 29.582L54.1779 29.6687ZM53.8479 28.7166L54.098 28.6299L54.0977 28.629L53.8479 28.7166ZM53.7756 28.5105L54.0254 28.4229L53.5109 28.5105H53.7756ZM53.8274 23.826L53.819 24.0905L54.4099 24.1091L54.4182 23.8445L54.4265 23.5799L53.8357 23.5614L53.8274 23.826ZM54.4182 23.8445L54.4052 24.1089C54.583 24.1177 54.7489 24.1283 54.9446 24.1391L54.9592 23.8748L54.9737 23.6105C54.785 23.6001 54.6101 23.5889 54.4312 23.5801L54.4182 23.8445ZM54.9592 23.8748L54.9446 24.1391C55.3342 24.1605 55.8617 24.1846 56.8197 24.1981L56.8234 23.9334L56.8272 23.6687C55.8764 23.6553 55.3561 23.6315 54.9737 23.6105L54.9592 23.8748ZM56.8234 23.9334L56.8197 24.1981C57.7839 24.2116 59.1782 24.2177 60.581 24.2245L60.5822 23.9597L60.5835 23.695C59.1794 23.6883 57.7882 23.6822 56.8272 23.6687L56.8234 23.9334ZM60.5822 23.9597L60.581 24.2245C61.9808 24.2312 63.3905 24.2385 64.3765 24.2518L64.3801 23.9871L64.3837 23.7224C63.3949 23.7091 61.9826 23.7018 60.5835 23.695L60.5822 23.9597ZM64.3801 23.9871V24.2518H64.4016V23.9871V23.7224H64.3801V23.9871ZM64.4016 23.9871L64.389 24.2515L64.4095 24.2525L64.4221 23.9881L64.4347 23.7237L64.4142 23.7227L64.4016 23.9871ZM64.4221 23.9881L64.4082 24.2524C66.3287 24.3534 67.3098 24.4389 67.9703 24.524L68.0041 24.2615L68.0379 23.999C67.3572 23.9113 66.3602 23.8249 64.436 23.7237L64.4221 23.9881ZM68.0041 24.2615L67.9649 24.5233L68.5518 24.6112L68.591 24.3494L68.6302 24.0876L68.0433 23.9997L68.0041 24.2615ZM68.591 24.3494L68.5475 24.6105L68.6178 24.6222L68.6613 24.3611L68.7049 24.1L68.6345 24.0883L68.591 24.3494ZM68.6613 24.3611L68.7618 24.606C69.1073 24.4643 69.5154 24.5828 69.7269 24.9063L69.9484 24.7615L70.17 24.6167C69.8168 24.0761 69.1363 23.8802 68.5609 24.1162L68.6613 24.3611ZM69.9484 24.7615L69.7268 24.9062C69.7884 25.0006 69.8271 25.1023 69.8447 25.2055L70.1057 25.1609L70.3666 25.1163C70.3369 24.9426 70.2718 24.7727 70.1701 24.6168L69.9484 24.7615ZM70.1057 25.1609L70.022 25.412L71.8852 26.0331L71.969 25.782L72.0527 25.5309L70.1894 24.9098L70.1057 25.1609ZM71.969 25.782L71.8852 26.0331C72.2582 26.1575 72.613 26.3282 72.9044 26.462L73.0149 26.2215L73.1253 25.9809C72.8464 25.8528 72.4598 25.6666 72.0527 25.5309L71.969 25.782ZM73.0149 26.2215L72.9044 26.462C73.213 26.6037 73.4825 26.7199 73.7659 26.7956L73.8342 26.5398L73.9025 26.2841C73.6661 26.221 73.4319 26.1217 73.1253 25.9809L73.0149 26.2215ZM73.8342 26.5398L73.7774 26.7984L74.3067 26.9146L74.3635 26.656L74.4203 26.3975L73.891 26.2813L73.8342 26.5398ZM74.3635 26.656L74.3071 26.9147C74.5238 26.9619 74.7855 27.0249 75.0462 27.1271L75.1428 26.8806L75.2394 26.6342C74.9385 26.5163 74.6436 26.4462 74.4198 26.3974L74.3635 26.656ZM75.1428 26.8806L75.0461 27.1271C75.5927 27.3414 76.1677 27.7425 76.4491 28.5311L76.6984 28.4422L76.9478 28.3532C76.5999 27.3785 75.8811 26.8859 75.2394 26.6342L75.1428 26.8806ZM76.6984 28.4422L76.4465 28.5233L76.5012 28.6932L76.7531 28.6121L77.0051 28.531L76.9504 28.3611L76.6984 28.4422ZM76.7531 28.6121L76.4986 28.6849C76.5918 29.0105 76.6364 29.4001 76.584 29.7551L76.8459 29.7937L77.1078 29.8324C77.1734 29.3874 77.1167 28.9206 77.0076 28.5393L76.7531 28.6121ZM76.8459 29.7937L76.5862 29.7423L76.5472 29.9396L76.8068 29.991L77.0665 30.0424L77.1056 29.8451L76.8459 29.7937ZM76.8068 29.991L76.5501 29.9266C76.4746 30.2278 76.3649 30.7918 76.1558 31.2503L76.3967 31.3601L76.6375 31.47C76.8729 30.9537 76.9985 30.315 77.0636 30.0554L76.8068 29.991ZM76.3967 31.3601L76.1558 31.2503C75.9405 31.7224 75.5586 32.2318 74.8748 32.4269L74.9475 32.6814L75.0201 32.936C75.909 32.6823 76.3868 32.0198 76.6375 31.47L76.3967 31.3601ZM74.9475 32.6814L74.884 32.4244L74.7219 32.4645L74.7854 32.7215L74.8488 32.9784L75.0109 32.9384L74.9475 32.6814ZM74.7854 32.7215L74.7312 32.4623C74.3736 32.537 73.8776 32.5628 73.4531 32.5506L73.4455 32.8152L73.4379 33.0798C73.8847 33.0926 74.4261 33.0669 74.8395 32.9806L74.7854 32.7215ZM73.4455 32.8152L73.4623 32.551L73.0629 32.5256L73.0461 32.7898L73.0293 33.054L73.4287 33.0794L73.4455 32.8152ZM73.0461 32.7898L73.0727 32.5265C72.4177 32.4602 71.7073 32.4093 71.1376 32.4436L71.1535 32.7078L71.1694 32.972C71.6934 32.9405 72.3673 32.9873 73.0195 33.0532L73.0461 32.7898ZM71.1535 32.7078L71.1376 32.4436C70.9566 32.4545 70.8104 32.4736 70.6964 32.4959L70.7473 32.7556L70.7981 33.0154C70.8852 32.9984 71.0076 32.9818 71.1695 32.972L71.1535 32.7078ZM70.7473 32.7556L70.4859 32.7139C70.4792 32.7558 70.4775 32.7733 70.4718 32.8001L70.7307 32.8553L70.9896 32.9104C70.999 32.866 71.0057 32.8159 71.0087 32.7974L70.7473 32.7556ZM70.7307 32.8553L70.4751 32.7863L70.4253 32.9709L70.6809 33.0398L70.9364 33.1088L70.9862 32.9242L70.7307 32.8553ZM70.6809 33.0398L70.4299 32.9558C70.289 33.3764 70.0418 33.9247 69.698 34.4251L69.9162 34.575L70.1344 34.7249C70.5103 34.1778 70.7779 33.5836 70.9319 33.1239L70.6809 33.0398ZM69.9162 34.575L69.6981 34.4251C69.3858 34.8795 68.935 35.3796 68.3348 35.6443L68.4416 35.8865L68.5484 36.1287C69.2779 35.807 69.7973 35.2154 70.1344 34.7249L69.9162 34.575ZM68.4416 35.8865L68.3412 35.6416L68.2054 35.6973L68.3059 35.9422L68.4063 36.1871L68.542 36.1314L68.4416 35.8865ZM68.3059 35.9422L68.213 35.6943C67.8957 35.8131 67.3119 36.0309 66.7117 36.126L66.7531 36.3875L66.7946 36.6489C67.454 36.5444 68.0838 36.308 68.3987 36.1901L68.3059 35.9422ZM66.7531 36.3875L66.7117 36.126C66.2028 36.2066 65.4035 36.2452 64.8102 35.7464L64.6399 35.949L64.4695 36.1516C65.2526 36.8101 66.2629 36.7331 66.7945 36.6489L66.7531 36.3875ZM64.6399 35.949L64.8199 35.7549L64.6851 35.6299L64.5051 35.824L64.3251 36.0181L64.4598 36.1431L64.6399 35.949ZM64.5051 35.824L64.6937 35.6383C64.4997 35.4412 64.3898 35.1882 64.3328 35.0269L64.0832 35.115L63.8336 35.2032C63.9002 35.3916 64.0418 35.7307 64.3164 36.0097L64.5051 35.824ZM64.0832 35.115L64.3347 35.0325L64.2927 34.9045L64.0412 34.9871L63.7897 35.0696L63.8317 35.1976L64.0832 35.115ZM64.0412 34.9871L64.2923 34.9033C64.1217 34.3917 63.8171 33.8526 63.4126 33.5473L63.2531 33.7586L63.0937 33.9698C63.3786 34.1849 63.6367 34.6109 63.7901 35.0708L64.0412 34.9871ZM63.2531 33.7586L63.3966 33.5361L63.2453 33.4385L63.1018 33.6609L62.9583 33.8834L63.1096 33.981L63.2531 33.7586ZM63.1018 33.6609L63.226 33.4272C62.6438 33.1178 61.8259 32.7368 61.0313 32.3961L60.927 32.6394L60.8226 32.8827C61.6097 33.2202 62.4131 33.5948 62.9776 33.8947L63.1018 33.6609ZM60.927 32.6394L61.0287 32.395L60.2542 32.0728L60.1525 32.3172L60.0508 32.5616L60.8253 32.8838L60.927 32.6394ZM60.1525 32.3172L60.2511 32.0715C59.7801 31.8826 59.3733 31.6327 59.0354 31.4308L58.8996 31.658L58.7638 31.8852C59.0934 32.0822 59.5371 32.3555 60.054 32.5629L60.1525 32.3172ZM58.8996 31.658L59.0354 31.4308C58.7701 31.2721 58.537 31.1371 58.2995 31.03L58.1906 31.2713L58.0818 31.5126C58.2885 31.6058 58.4983 31.7265 58.7638 31.8852L58.8996 31.658ZM58.1906 31.2713L58.2902 31.026L58.0666 30.9352L57.967 31.1804L57.8674 31.4257L58.091 31.5165L58.1906 31.2713ZM57.967 31.1804L58.0565 30.9313C57.9555 30.8951 57.8091 30.8631 57.5842 30.8191L57.5334 31.0789L57.4826 31.3387C57.7168 31.3844 57.8216 31.4095 57.8775 31.4296L57.967 31.1804ZM57.5334 31.0789L57.5842 30.8191C57.3834 30.7798 57.1164 30.7301 56.8666 30.6569L56.7922 30.9109L56.7178 31.1649C56.996 31.2465 57.2899 31.301 57.4826 31.3387L57.5334 31.0789ZM56.7922 30.9109L56.8667 30.6569C56.7161 30.6127 56.5153 30.5422 56.3131 30.429L56.1838 30.6599L56.0545 30.8909C56.3032 31.0301 56.5446 31.1142 56.7177 31.1649L56.7922 30.9109ZM56.1838 30.6599L55.9214 30.6249C55.8642 31.0541 55.8036 31.4847 55.7373 31.8732L55.9982 31.9178L56.2592 31.9623C56.3272 31.5639 56.3888 31.1255 56.4462 30.6949L56.1838 30.6599ZM55.9982 31.9178L55.7373 31.8731L55.7119 32.0216L55.9729 32.0662L56.2338 32.1108L56.2592 31.9624L55.9982 31.9178ZM55.9729 32.0662L55.7347 31.9506L55.6693 32.0853L55.9074 32.201L56.1456 32.3166L56.211 32.1818L55.9729 32.0662ZM55.9074 32.201L55.6691 32.0858C55.5274 32.379 55.2985 32.9268 55.0377 33.3489L55.2629 33.4881L55.4881 33.6272C55.7679 33.1743 56.0238 32.5685 56.1458 32.3161L55.9074 32.201ZM55.2629 33.4881L55.0377 33.3489C54.799 33.7353 54.3922 34.2642 53.7384 34.4232L53.801 34.6804L53.8636 34.9377C54.7316 34.7264 55.2345 34.0375 55.4881 33.6272L55.2629 33.4881ZM53.801 34.6804L53.7491 34.4209L53.5928 34.4521L53.6447 34.7117L53.6966 34.9713L53.8529 34.94L53.801 34.6804ZM53.6447 34.7117L53.6038 34.4502C52.9047 34.5596 52.108 34.5227 51.415 34.4252L51.3781 34.6873L51.3412 34.9494C52.0639 35.0512 52.9169 35.0936 53.6857 34.9732L53.6447 34.7117ZM51.3781 34.6873L51.4151 34.4252C50.817 34.3409 50.2268 34.2016 49.7901 34.0306L49.6936 34.2771L49.5971 34.5236C50.0843 34.7144 50.7177 34.8615 51.3412 34.9494L51.3781 34.6873ZM49.6936 34.2771L49.7971 34.0335L49.6086 33.9534L49.5051 34.197L49.4016 34.4407L49.5901 34.5208L49.6936 34.2771ZM49.5051 34.197L49.6155 33.9565C49.346 33.8327 48.9449 33.692 48.5241 33.6171L48.4777 33.8777L48.4314 34.1383C48.8025 34.2044 49.1606 34.3302 49.3946 34.4376L49.5051 34.197ZM48.4777 33.8777L48.5241 33.6171C48.1443 33.5496 47.8115 33.5466 47.5575 33.6076L47.6193 33.865L47.6812 34.1224C47.8392 34.0844 48.0927 34.0781 48.4314 34.1383L48.4777 33.8777ZM47.6193 33.865L47.5447 33.6111L47.4616 33.6355L47.5363 33.8894L47.611 34.1434L47.694 34.119L47.6193 33.865ZM47.5363 33.8894L47.4496 33.6393C47.1809 33.7325 46.9429 33.8968 46.5906 34.1364L46.7395 34.3553L46.8883 34.5742C47.2616 34.3203 47.4353 34.2046 47.623 34.1395L47.5363 33.8894ZM46.7395 34.3553L46.5906 34.1364C46.3112 34.3263 45.9434 34.5752 45.4923 34.7263L45.5764 34.9773L45.6604 35.2283C46.1889 35.0514 46.6112 34.7625 46.8883 34.5742L46.7395 34.3553ZM45.5764 34.9773L45.5017 34.7234L45.2859 34.7868L45.3606 35.0408L45.4352 35.2948L45.6511 35.2313L45.5764 34.9773ZM45.3606 35.0408L45.2959 34.7841C44.5912 34.9617 43.8086 35.0456 43.1256 35.0623L43.132 35.3269L43.1385 35.5916C43.8506 35.5741 44.6736 35.4869 45.4252 35.2975L45.3606 35.0408ZM43.132 35.3269L43.1256 35.0623C42.5493 35.0764 41.97 35.0449 41.5422 34.9512L41.4856 35.2097L41.4289 35.4683C41.9162 35.5751 42.5435 35.6061 43.1385 35.5916L43.132 35.3269ZM41.4856 35.2097L41.5513 34.9533L41.3648 34.9055L41.299 35.1619L41.2333 35.4183L41.4198 35.4662L41.4856 35.2097ZM41.299 35.1619L41.3732 34.9078C41.2373 34.8681 41.0917 34.8349 40.9108 34.792L40.8498 35.0496L40.7888 35.3072C40.9776 35.3519 41.1056 35.3812 41.2248 35.416L41.299 35.1619ZM40.8498 35.0496L40.9108 34.792C40.7392 34.7514 40.5389 34.7032 40.3396 34.6386L40.258 34.8904L40.1764 35.1422C40.3984 35.2142 40.6178 35.2667 40.7888 35.3072L40.8498 35.0496ZM40.258 34.8904L40.3397 34.6386C39.9904 34.5254 39.5795 34.3438 39.2409 33.9951L39.051 34.1795L38.8611 34.3639C39.2852 34.8006 39.7887 35.0165 40.1764 35.1422L40.258 34.8904ZM39.051 34.1795L39.2501 34.0051L39.0919 33.8244L38.8928 33.9988L38.6936 34.1732L38.8518 34.3539L39.051 34.1795ZM38.8928 33.9988L39.1004 33.8345C39.0083 33.7182 38.9004 33.5569 38.8285 33.3225L38.5754 33.4002L38.3223 33.4778C38.4194 33.7941 38.5668 34.0134 38.6852 34.1631L38.8928 33.9988ZM38.5754 33.4002L38.8285 33.3226C38.7619 33.1054 38.7386 32.8668 38.7424 32.6012L38.4777 32.5974L38.2131 32.5937C38.2088 32.8924 38.2342 33.1903 38.3223 33.4778L38.5754 33.4002ZM38.4777 32.5974L38.7424 32.601L38.7434 32.5288L38.4787 32.5252L38.214 32.5216L38.2131 32.5939L38.4777 32.5974ZM38.4787 32.5252L38.5582 32.2727C38.5177 32.2599 38.5264 32.2637 38.5055 32.2567L38.4211 32.5076L38.3367 32.7585C38.3511 32.7633 38.3647 32.7674 38.3747 32.7703C38.3859 32.7736 38.3924 32.7755 38.3993 32.7777L38.4787 32.5252ZM38.4211 32.5076L38.5056 32.2567C38.4111 32.2249 38.315 32.1872 38.2533 32.164L38.1604 32.4119L38.0674 32.6598C38.1188 32.679 38.2308 32.7228 38.3366 32.7585L38.4211 32.5076ZM38.1604 32.4119L38.2451 32.1611L38.1065 32.1142L38.0217 32.365L37.9369 32.6158L38.0756 32.6627L38.1604 32.4119ZM38.0217 32.365L38.0921 32.1099C37.9845 32.0801 37.8803 32.0588 37.7352 32.0273L37.6789 32.2859L37.6227 32.5446C37.7774 32.5782 37.8617 32.5955 37.9513 32.6202L38.0217 32.365ZM37.6789 32.2859L37.7352 32.0273C37.6013 31.9981 37.4353 31.9603 37.2623 31.9029L37.1789 32.1541L37.0955 32.4053C37.2966 32.4721 37.4855 32.5147 37.6227 32.5446L37.6789 32.2859ZM37.1789 32.1541L37.2104 31.8913C37.2041 31.8905 37.1979 31.8896 37.1841 31.8876C37.172 31.8859 37.1561 31.8838 37.1383 31.8819L37.1115 32.1453L37.0847 32.4086C37.115 32.4117 37.1019 32.4114 37.1474 32.4169L37.1789 32.1541ZM37.1115 32.1453L37.1382 31.8819C37.0082 31.8688 36.8481 31.8582 36.6735 31.8515L36.6633 32.116L36.6531 32.3805C36.8198 32.387 36.9686 32.3969 37.0849 32.4087L37.1115 32.1453ZM36.6633 32.116L36.6735 31.8515C36.4081 31.8412 36.1262 31.8408 35.8803 31.8505L35.8908 32.115L35.9013 32.3795C36.1322 32.3704 36.4001 32.3707 36.6531 32.3805L36.6633 32.116ZM35.8908 32.115L35.8759 31.8507L35.6513 31.8634L35.6662 32.1277L35.6812 32.392L35.9058 32.3793L35.8908 32.115ZM35.6662 32.1277L35.6457 31.8638C35.444 31.8795 35.2726 31.8998 35.1075 31.922L35.1428 32.1844L35.1781 32.4467C35.3368 32.4253 35.4978 32.4063 35.6867 32.3916L35.6662 32.1277ZM35.1428 32.1844L35.107 31.9221L34.606 31.9904L34.6418 32.2527L34.6776 32.515L35.1786 32.4466L35.1428 32.1844ZM34.6418 32.2527L34.6087 31.9901C34.509 32.0027 34.4069 32.0237 34.2678 32.0503L34.3176 32.3103L34.3674 32.5703C34.5191 32.5413 34.597 32.5252 34.6749 32.5153L34.6418 32.2527ZM34.3176 32.3103L34.2678 32.0503C34.2045 32.0625 34.1294 32.0758 34.0475 32.0891L34.09 32.3504L34.1326 32.6116C34.2187 32.5976 34.2987 32.5835 34.3674 32.5703L34.3176 32.3103ZM34.09 32.3504L34.0551 32.088L33.7836 32.1241L33.8186 32.3865L33.8535 32.6489L34.125 32.6128L34.09 32.3504ZM33.8186 32.3865L33.7929 32.123C33.7289 32.1293 33.665 32.133 33.5935 32.1381L33.6125 32.4021L33.6315 32.6662C33.6931 32.6617 33.7714 32.6571 33.8443 32.65L33.8186 32.3865ZM33.6125 32.4021L33.368 32.5035L33.4178 32.6236L33.6623 32.5222L33.9068 32.4209L33.857 32.3007L33.6125 32.4021ZM33.6623 32.5222L33.4231 32.6356C33.4505 32.6934 33.4863 32.7647 33.5344 32.8563L33.7688 32.7332L34.0031 32.6101C33.957 32.5224 33.9248 32.4581 33.9015 32.4089L33.6623 32.5222ZM33.7688 32.7332L33.5344 32.8563C33.6186 33.0165 33.7357 33.2328 33.8338 33.4694L34.0783 33.3679L34.3228 33.2665C34.2134 33.0029 34.0834 32.7629 34.0031 32.6101L33.7688 32.7332ZM34.0783 33.3679L33.8338 33.4694C34.0171 33.9113 34.1487 34.4506 34.0482 35.0999L34.3098 35.1404L34.5714 35.1809C34.6907 34.4098 34.5319 33.7704 34.3228 33.2665L34.0783 33.3679ZM34.3098 35.1404L34.0504 35.0876L33.9869 35.3991L34.2463 35.4519L34.5057 35.5048L34.5692 35.1933L34.3098 35.1404ZM34.2463 35.4519L33.9895 35.3876C33.9474 35.5556 33.9184 35.7138 33.8711 35.9383L34.1301 35.9929L34.3891 36.0476C34.4401 35.8055 34.4641 35.6716 34.5031 35.5163L34.2463 35.4519ZM34.1301 35.9929L33.8711 35.9383C33.8276 36.1443 33.7722 36.3852 33.6849 36.6265L33.9338 36.7166L34.1827 36.8066C34.283 36.5294 34.3445 36.2591 34.3891 36.0476L34.1301 35.9929ZM33.9338 36.7166L33.6849 36.6265C33.5127 37.1025 33.2127 37.5918 32.6412 37.9385L32.7785 38.1648L32.9158 38.3911C33.6179 37.9652 33.9817 37.3621 34.1827 36.8066L33.9338 36.7166ZM32.7785 38.1648L32.6474 37.9349L32.5155 38.0101L32.6467 38.24L32.7778 38.47L32.9097 38.3948L32.7785 38.1648ZM32.6467 38.24L32.5215 38.0068C32.0453 38.2623 30.9448 38.5817 29.6196 38.3211L29.5686 38.5808L29.5175 38.8406C30.9685 39.126 32.1931 38.7838 32.7718 38.4733L32.6467 38.24ZM29.5686 38.5808L29.6262 38.3225L29.3459 38.26L29.2883 38.5183L29.2307 38.7767L29.5109 38.8392L29.5686 38.5808ZM29.2883 38.5183L29.3529 38.2616C28.8962 38.1467 28.5884 37.9495 28.3584 37.7663L28.1936 37.9734L28.0287 38.1805C28.3 38.3966 28.6747 38.6368 29.2237 38.775L29.2883 38.5183ZM28.1936 37.9734L28.3585 37.7664C28.2769 37.7014 28.142 37.5847 28.1154 37.5624L27.9455 37.7654L27.7756 37.9684C27.7881 37.9788 27.9412 38.1108 28.0286 38.1805L28.1936 37.9734ZM27.9455 37.7654L28.1187 37.5652L28.0825 37.5339L27.9094 37.7342L27.7362 37.9344L27.7724 37.9656L27.9455 37.7654ZM27.9094 37.7342L28.0319 37.4995C27.4779 37.2103 26.9727 36.947 26.4792 36.7701L26.3899 37.0193L26.3005 37.2685C26.7533 37.4308 27.225 37.6754 27.7869 37.9688L27.9094 37.7342ZM26.3899 37.0193L26.4736 36.7682L26.2714 36.7008L26.1877 36.9519L26.104 37.2031L26.3061 37.2704L26.3899 37.0193ZM26.1877 36.9519L26.2654 36.6989C26.0261 36.6254 25.7579 36.5477 25.483 36.4678C25.2072 36.3875 24.9238 36.3047 24.65 36.2196L24.5715 36.4724L24.493 36.7252C24.7718 36.8119 25.0595 36.8959 25.3352 36.9761C25.6117 37.0566 25.8753 37.1329 26.11 37.205L26.1877 36.9519ZM24.5715 36.4724L24.6537 36.2208L24.1185 36.046L24.0363 36.2976L23.9541 36.5493L24.4893 36.7241L24.5715 36.4724ZM24.0363 36.2976L24.123 36.0475C23.9393 35.9839 23.7918 35.946 23.5373 35.8663L23.4582 36.1189L23.3791 36.3715C23.6668 36.4617 23.7716 36.4861 23.9497 36.5478L24.0363 36.2976ZM23.4582 36.1189L23.5374 35.8663C23.3084 35.7946 23.0447 35.7031 22.7706 35.5651L22.6516 35.8015L22.5326 36.038C22.8438 36.1946 23.1386 36.2962 23.3791 36.3715L23.4582 36.1189ZM22.6516 35.8015L22.7706 35.5651C22.272 35.3141 21.7853 34.9345 21.3354 34.3158L21.1213 34.4715L20.9072 34.6272C21.4073 35.3148 21.9594 35.7494 22.5325 36.038L22.6516 35.8015ZM21.1213 34.4715L21.3402 34.3226L21.139 34.0267L20.9201 34.1756L20.7012 34.3244L20.9024 34.6203L21.1213 34.4715ZM20.9201 34.1756L21.1435 34.0335C20.7936 33.4835 20.3562 32.8227 19.9517 32.1708L19.7268 32.3103L19.5018 32.4499C19.9069 33.1027 20.3557 33.7814 20.6968 34.3176L20.9201 34.1756ZM19.7268 32.3103L19.4664 32.2624C19.3925 32.6638 19.3048 33.0169 19.187 33.3305L19.4348 33.4236L19.6826 33.5167C19.8154 33.1631 19.91 32.7768 19.9871 32.3583L19.7268 32.3103ZM19.4348 33.4236L19.1867 33.3312L19.1496 33.4308L19.3977 33.5232L19.6457 33.6156L19.6828 33.516L19.4348 33.4236ZM19.3977 33.5232L19.1737 33.3821L19.1171 33.4719L19.341 33.6131L19.5649 33.7542L19.6216 33.6644L19.3977 33.5232ZM19.341 33.6131L19.1166 33.4727C18.7257 34.0976 18.2622 34.6906 17.5214 35.3127L17.6916 35.5154L17.8618 35.7181C18.652 35.0545 19.1505 34.4169 19.5654 33.7534L19.341 33.6131ZM17.6916 35.5154L17.526 35.3089L17.1803 35.5863L17.3459 35.7928L17.5116 35.9992L17.8573 35.7219L17.6916 35.5154ZM17.3459 35.7928L17.1849 35.5826C16.8059 35.873 16.5266 36.1413 16.1462 36.4679L16.3186 36.6687L16.491 36.8696C16.8981 36.5202 17.1424 36.2821 17.5069 36.0029L17.3459 35.7928ZM16.3186 36.6687L16.1462 36.4679C15.8262 36.7425 15.4708 37.0232 15.0236 37.2825L15.1565 37.5115L15.2893 37.7405C15.7756 37.4584 16.1585 37.1549 16.491 36.8696L16.3186 36.6687ZM15.1565 37.5115L15.0272 37.2805L14.8212 37.3957L14.9504 37.6267L15.0796 37.8578L15.2857 37.7425L15.1565 37.5115ZM14.9504 37.6267L14.826 37.3931C14.239 37.7055 13.1319 38.6424 11.507 38.3249L11.4563 38.5847L11.4055 38.8445C13.2668 39.2082 14.6002 38.113 15.0748 37.8604L14.9504 37.6267ZM11.4563 38.5847L11.5124 38.3261L11.3415 38.289L11.2854 38.5476L11.2292 38.8063L11.4001 38.8434L11.4563 38.5847ZM11.2854 38.5476L11.3477 38.2904C10.5532 38.0979 9.86563 37.7611 9.27357 37.2086L9.09298 37.4021L8.91238 37.5957C9.58116 38.2197 10.3546 38.5945 11.223 38.8049L11.2854 38.5476ZM9.09298 37.4021L9.28118 37.216L9.01751 36.9494L8.8293 37.1355L8.6411 37.3217L8.90477 37.5883L9.09298 37.4021ZM8.8293 37.1355L9.02437 36.9566C8.82155 36.7355 8.56954 36.3805 8.42092 35.9405L8.17012 36.0252L7.91933 36.1099C8.09676 36.6352 8.39383 37.0524 8.63423 37.3145L8.8293 37.1355ZM8.17012 36.0252L8.42092 35.9405C8.2684 35.4888 8.21409 34.9072 8.49186 34.3142L8.25216 34.2019L8.01245 34.0896C7.66195 34.8378 7.73579 35.5664 7.91933 36.1099L8.17012 36.0252ZM8.25216 34.2019L8.488 34.3221L8.66867 33.9676L8.43282 33.8474L8.19697 33.7272L8.01631 34.0817L8.25216 34.2019ZM8.43282 33.8474L8.66495 33.9747C8.72403 33.8669 8.78271 33.7658 8.83727 33.6722L8.6086 33.5388L8.37993 33.4055C8.32521 33.4993 8.26345 33.6057 8.20069 33.7202L8.43282 33.8474ZM8.6086 33.5388L8.83727 33.6722C8.95152 33.4763 9.04647 33.3171 9.1265 33.1575L8.88985 33.0388L8.6532 32.9202C8.58273 33.0608 8.49911 33.2011 8.37994 33.4055L8.6086 33.5388ZM8.88985 33.0388L9.12652 33.1574C9.16496 33.0807 9.19657 33.0098 9.22237 32.9437L8.97579 32.8474L8.72921 32.7512C8.71001 32.8003 8.68523 32.8563 8.65319 32.9203L8.88985 33.0388ZM8.97579 32.8474L9.22912 32.9242L9.23889 32.892L8.98555 32.8152L8.73222 32.7384L8.72246 32.7707L8.97579 32.8474ZM8.98555 32.8152L8.97214 32.5508C8.9412 32.5524 8.91552 32.5551 8.89634 32.5575L8.92989 32.8201L8.96344 33.0827C8.9713 33.0817 8.98342 33.0804 8.99897 33.0796L8.98555 32.8152ZM8.92989 32.8201L8.90066 32.557L8.88308 32.559L8.91231 32.822L8.94154 33.0851L8.95912 33.0832L8.92989 32.8201ZM8.91231 32.822L8.85194 32.5643C8.14867 32.729 7.64943 32.8664 7.21051 33.1152L7.34102 33.3455L7.47154 33.5758C7.83641 33.369 8.26624 33.2453 8.97268 33.0798L8.91231 32.822ZM7.34102 33.3455L7.20178 33.1204L7.03284 33.2249L7.17208 33.45L7.31132 33.6751L7.48026 33.5706L7.34102 33.3455ZM7.17208 33.45L7.02524 33.2297C6.90362 33.3108 6.7766 33.4131 6.61887 33.5444L6.78829 33.7478L6.95771 33.9512C7.11564 33.8197 7.22331 33.734 7.31891 33.6702L7.17208 33.45ZM6.78829 33.7478L6.61886 33.5444C6.47088 33.6677 6.28919 33.8225 6.09796 33.9635L6.25509 34.1765L6.41221 34.3896C6.61929 34.2368 6.81599 34.0693 6.95772 33.9512L6.78829 33.7478ZM6.25509 34.1765L6.09798 33.9635C5.75585 34.2158 5.31678 34.476 4.76036 34.5645L4.80196 34.826L4.84356 35.0874C5.51846 34.98 6.03749 34.6659 6.41219 34.3896L6.25509 34.1765ZM4.80196 34.826L4.77273 34.5629L4.50027 34.5931L4.5295 34.8562L4.55873 35.1193L4.83119 35.089L4.80196 34.826ZM4.5295 34.8562L4.51363 34.592C4.04228 34.6203 3.58356 34.6155 3.18437 34.5581L3.14669 34.8201L3.10901 35.0821C3.55619 35.1464 4.05361 35.15 4.54537 35.1205L4.5295 34.8562ZM3.14669 34.8201L3.18438 34.5581C2.86517 34.5122 2.47564 34.4184 2.16093 34.1914L2.00606 34.406L1.85119 34.6207C2.27004 34.9229 2.76147 35.0321 3.109 35.0821L3.14669 34.8201ZM2.00606 34.406L2.17318 34.2008L2.02084 34.0767L1.85372 34.282L1.6866 34.4873L1.83894 34.6113L2.00606 34.406ZM1.85372 34.282L2.03266 34.0869C1.49143 33.5905 1.08887 32.5694 1.34235 31.4509L1.08419 31.3924L0.826025 31.3339C0.532857 32.6275 0.986108 33.8453 1.67478 34.4771L1.85372 34.282ZM1.08419 31.3924L1.34185 31.453L1.41704 31.1337L1.15938 31.073L0.901721 31.0124L0.826526 31.3317L1.08419 31.3924ZM1.15938 31.073L1.41658 31.1356C1.59487 30.4032 1.83716 29.6764 2.42879 28.9934L2.22872 28.8201L2.02865 28.6468C1.35544 29.4239 1.08795 30.2473 0.902185 31.0104L1.15938 31.073ZM2.22872 28.8201L2.42345 28.9994L2.66173 28.7406L2.467 28.5613L2.27227 28.382L2.03398 28.6408L2.22872 28.8201ZM2.467 28.5613L2.65593 28.7467C3.20307 28.1892 3.83357 27.7734 4.38239 27.4075L4.23555 27.1873L4.08872 26.967C3.54721 27.328 2.86997 27.7728 2.27807 28.3759L2.467 28.5613ZM4.23555 27.1873L4.38236 27.4076C4.75299 27.1605 5.12699 26.9727 5.46337 26.8449L5.36934 26.5974L5.27531 26.35C4.90136 26.4921 4.492 26.6983 4.08875 26.967L4.23555 27.1873ZM5.36934 26.5974L5.46335 26.8449C5.74432 26.7382 6.04713 26.6546 6.32185 26.637L6.30489 26.3728L6.28793 26.1087C5.93997 26.131 5.58191 26.2335 5.27533 26.35L5.36934 26.5974ZM6.30489 26.3728L6.49562 26.5564C6.6401 26.4063 6.84265 26.3134 7.06766 26.3133L7.06759 26.0486L7.06751 25.7839C6.69333 25.784 6.35468 25.9394 6.11416 26.1893L6.30489 26.3728ZM7.06759 26.0486V26.3133H8.87032V26.0486V25.7839H7.06759V26.0486ZM8.87032 26.0486V26.3133C10.5699 26.3133 13.9022 26.3123 15.6945 26.2859L15.6906 26.0213L15.6867 25.7566C13.8992 25.7829 10.5715 25.7839 8.87032 25.7839V26.0486ZM15.6906 26.0213L15.698 26.2859L16.4714 26.2644L16.4641 25.9998L16.4567 25.7352L15.6833 25.7567L15.6906 26.0213ZM16.4641 25.9998L16.4752 26.2643C18.1521 26.1934 18.8453 25.9896 19.5998 25.8686L19.5578 25.6072L19.5159 25.3458C18.7249 25.4728 18.0885 25.6662 16.4529 25.7353L16.4641 25.9998ZM19.5578 25.6072L19.6064 25.8674L20.0566 25.7834L20.008 25.5232L19.9595 25.263L19.5093 25.347L19.5578 25.6072ZM20.008 25.5232L20.0615 25.7825C20.2161 25.7506 20.3762 25.7158 20.5444 25.6794L20.4885 25.4207L20.4325 25.162C20.2632 25.1986 20.1061 25.2327 19.9546 25.264L20.008 25.5232ZM20.4885 25.4207L20.5444 25.6794C20.8687 25.6093 21.2215 25.5353 21.5812 25.49L21.5481 25.2273L21.5149 24.9647C21.1299 25.0133 20.7569 25.0918 20.4325 25.162L20.4885 25.4207ZM21.5481 25.2273L21.5887 25.4889L22.0916 25.4108L22.051 25.1492L22.0104 24.8876L21.5074 24.9658L21.5481 25.2273ZM22.051 25.1492L22.0973 25.4098C22.2776 25.3778 22.4674 25.3409 22.6654 25.3013L22.6135 25.0418L22.5616 24.7822C22.3651 24.8215 22.1795 24.8575 22.0047 24.8886L22.051 25.1492ZM22.6135 25.0418L22.6654 25.3013C23.0511 25.2242 23.4713 25.1354 23.8741 25.0663L23.8293 24.8054L23.7846 24.5445C23.3723 24.6153 22.9393 24.7067 22.5616 24.7822L22.6135 25.0418ZM23.8293 24.8054L23.8648 25.0678L24.356 25.0014L24.3205 24.739L24.2851 24.4767L23.7938 24.5431L23.8293 24.8054ZM24.3205 24.739L24.3494 25.0022C24.8735 24.9447 25.5137 24.91 26.1659 24.8794L26.1535 24.615L26.1411 24.3506C25.49 24.3811 24.8344 24.4164 24.2916 24.4759L24.3205 24.739ZM26.1535 24.615L26.1659 24.8794C27.0636 24.8374 28.0239 24.8019 28.8989 24.7364L28.8791 24.4724L28.8593 24.2085C27.9942 24.2733 27.0466 24.3082 26.1411 24.3506L26.1535 24.615ZM28.8791 24.4724L28.8948 24.7367L29.719 24.6879L29.7033 24.4236L29.6877 24.1594L28.8635 24.2082L28.8791 24.4724ZM29.7033 24.4236L29.7154 24.688C30.5789 24.6486 31.5064 24.6332 32.9011 24.5738L32.8899 24.3094L32.8786 24.0449C31.5274 24.1024 30.5289 24.1209 29.6913 24.1592L29.7033 24.4236ZM32.8899 24.3094L32.8982 24.5739L33.5202 24.5544L33.5119 24.2898L33.5036 24.0252L32.8815 24.0448L32.8899 24.3094ZM33.5119 24.2898L33.5182 24.5545C34.2959 24.5361 35.2484 24.5328 36.1613 24.5314C37.0722 24.5299 37.945 24.5304 38.5577 24.5193L38.5529 24.2547L38.5482 23.99C37.9411 24.0009 37.0746 24.0005 36.1604 24.0019C35.2483 24.0034 34.2901 24.0067 33.5057 24.0252L33.5119 24.2898ZM38.5529 24.2547L38.5577 24.5193C39.2817 24.5063 39.6945 24.4872 40.1143 24.4673L40.1018 24.2029L40.0893 23.9385C39.6719 23.9582 39.2649 23.9771 38.5482 23.99L38.5529 24.2547ZM40.1018 24.2029L40.1143 24.4673C40.5399 24.4472 40.9736 24.4267 41.7277 24.4129L41.7229 24.1482L41.718 23.8836C40.9564 23.8975 40.517 23.9183 40.0893 23.9385L40.1018 24.2029ZM41.7229 24.1482L41.7277 24.4129C43.2475 24.385 45.9614 24.3857 47.5918 24.3327L47.5832 24.0681L47.5746 23.8036C45.945 23.8565 43.2598 23.8553 41.718 23.8836L41.7229 24.1482ZM47.5832 24.0681L47.5938 24.3326L48.3281 24.3033L48.3176 24.0388L48.307 23.7743L47.5727 23.8036L47.5832 24.0681ZM48.3176 24.0388L48.3301 24.3033C50.0641 24.2213 51.8318 24.0675 53.8243 24.0906L53.8274 23.826L53.8304 23.5613C51.8173 23.5378 50.0139 23.6936 48.3051 23.7744L48.3176 24.0388ZM53.7756 28.5115L53.5255 28.5982L53.9268 29.7564L54.177 29.6697L54.4271 29.583L54.0257 28.4248L53.7756 28.5115ZM54.177 29.6697L54.3641 29.8569L54.3651 29.8559L54.1779 29.6687L53.9908 29.4816L53.9898 29.4825L54.177 29.6697ZM54.1779 29.6687L54.428 29.582L54.098 28.6299L53.8479 28.7166L53.5978 28.8033L53.9278 29.7554L54.1779 29.6687ZM53.8479 28.7166L54.0977 28.629L54.0254 28.4229L53.7756 28.5105L53.5258 28.5981L53.5981 28.8042L53.8479 28.7166ZM53.7756 28.5105H53.5109V28.5115H53.7756H54.0403V28.5105H53.7756Z" fill="#607E3C"/>
<g filter="url(#filter0_n_47_1459)">
<path d="M73.193 24.988C73.193 33.9767 69.5387 28.6809 37.8994 28.6809C6.26014 28.6809 3.11743 33.9767 3.11743 24.988C3.11743 15.9994 6.26014 19.902 37.8994 19.902C69.5387 19.902 73.193 15.9994 73.193 24.988Z" fill="#5F3C0C"/>
<path d="M67.4026 19.3393C69.8381 19.4133 71.1784 19.771 71.9338 20.5815C72.6917 21.3948 72.928 22.7331 72.928 24.9877C72.928 26.1063 72.8711 26.9834 72.7161 27.6694C72.5619 28.3514 72.3146 28.8257 71.9485 29.1615C71.5809 29.4986 71.0653 29.7215 70.3245 29.8451C69.5817 29.9691 68.6338 29.9907 67.4221 29.9408C62.5936 29.7421 53.7171 28.4164 37.8997 28.4164C22.0815 28.4164 13.3333 29.7421 8.63208 29.9408C7.45226 29.9907 6.53709 29.9697 5.82544 29.8461C5.11649 29.723 4.63066 29.5014 4.28735 29.1674C3.94403 28.8334 3.71495 28.3591 3.57349 27.6742C3.43144 26.9863 3.38208 26.1075 3.38208 24.9877C3.38209 23.8687 3.4318 22.9673 3.57446 22.2397C3.71669 21.5143 3.94852 20.978 4.302 20.5756C5.00907 19.771 6.2805 19.4133 8.65161 19.3393C11.0082 19.2657 14.3514 19.4708 19.1047 19.6967C23.8509 19.9222 29.9843 20.1664 37.8997 20.1664C45.8151 20.1664 51.9806 19.9222 56.7747 19.6967C61.5752 19.4709 64.9819 19.2657 67.4026 19.3393Z" stroke="#462902" stroke-width="0.529417"/>
</g>
<path d="M48.8352 26.7151C36.8545 24.2968 26.2447 23.0729 18.4612 22.177C14.5522 21.727 11.364 21.3601 9.0686 20.967C7.92045 20.7704 7.00633 20.5692 6.34204 20.3508C6.01005 20.2416 5.74822 20.1307 5.55396 20.0188C5.54715 20.0148 5.54102 20.01 5.53442 20.0061C5.7597 19.9705 6.04306 19.9341 6.38403 19.8987C7.04384 19.8301 7.89908 19.7649 8.92114 19.7033C10.9648 19.5802 13.6695 19.4716 16.8079 19.3811C23.0845 19.2001 31.0891 19.0899 38.9944 19.0666C46.8997 19.0433 54.7034 19.1073 60.5793 19.2766C63.5179 19.3613 65.9709 19.4726 67.7122 19.6115C68.4077 19.667 68.9856 19.7276 69.4338 19.7912C57.7251 21.8329 52.7547 23.1711 48.8352 26.7151Z" fill="#FFCC00" stroke="#D4A900" stroke-width="0.529417"/>
<path d="M38.7493 0.264641C55.0474 0.264641 63.5347 3.42283 67.9465 7.12792C72.3429 10.8201 72.7356 15.0933 72.7356 17.4687C72.7356 18.6954 72.6202 19.2761 72.0959 19.6133C71.8162 19.7931 71.3935 19.9217 70.7405 19.9971C70.0904 20.072 69.239 20.0915 68.1213 20.0732C63.6669 20.0003 55.0652 19.3232 38.7493 19.3232C22.4344 19.3232 13.4856 20.0003 8.68677 20.0732C7.48303 20.0915 6.54372 20.0725 5.81079 19.9971C5.07516 19.9214 4.56996 19.7907 4.21997 19.6025C3.88181 19.4207 3.67996 19.1808 3.55688 18.8525C3.42883 18.5109 3.38208 18.0643 3.38208 17.4687C3.38215 15.1155 4.1068 10.8353 8.85376 7.13378C13.6142 3.42179 22.4531 0.264668 38.7493 0.264641Z" fill="#E9AD5A" stroke="black" stroke-width="0.529417"/>
<path d="M12.5711 10.0589C13.2038 10.7485 13.5259 11.1577 13.6801 12.1763C12.7994 11.4096 12.4449 10.9346 12.5711 10.0589Z" fill="#FFDAA6"/>
<path d="M21.4454 3.17646C22.0781 3.86607 22.4001 4.2753 22.5544 5.29386C21.6736 4.52711 21.3192 4.05216 21.4454 3.17646Z" fill="#FFDAA6"/>
<path d="M35.8407 3.17646C35.2081 3.86607 34.886 4.2753 34.7317 5.29386C35.6125 4.52711 35.9669 4.05216 35.8407 3.17646Z" fill="#FFDAA6"/>
<path d="M30.8739 9.00008C31.5065 9.6897 31.8286 10.0989 31.9829 11.1175C31.1021 10.3507 30.7477 9.87578 30.8739 9.00008Z" fill="#FFDAA6"/>
<path d="M54.1435 9.00008C53.5108 9.6897 53.1887 10.0989 53.0345 11.1175C53.9152 10.3507 54.2697 9.87578 54.1435 9.00008Z" fill="#FFDAA6"/>
<path d="M46.9581 4.23528C47.5908 4.9249 47.9128 5.33412 48.0671 6.35268C47.1863 5.58593 46.8319 5.11098 46.9581 4.23528Z" fill="#FFDAA6"/>
<path d="M61.9327 6.88238C62.5654 7.57199 62.8874 7.98122 63.0417 8.99977C62.1609 8.23303 61.8065 7.75808 61.9327 6.88238Z" fill="#FFDAA6"/>
<path d="M61.9327 15.3531C62.5654 16.0427 62.8874 16.4519 63.0417 17.4705C62.1609 16.7037 61.8065 16.2288 61.9327 15.3531Z" fill="#FFDAA6"/>
<path d="M22.5548 14.2942C23.1874 14.9838 23.5095 15.393 23.6638 16.4116C22.783 15.6449 22.4286 15.1699 22.5548 14.2942Z" fill="#FFDAA6"/>
<path d="M19.2023 7.9412C18.5696 8.63081 18.2476 9.04004 18.0933 10.0586C18.9741 9.29185 19.3285 8.8169 19.2023 7.9412Z" fill="#FFDAA6"/>
<path d="M44.1847 14.2942C44.8173 13.6046 45.1394 13.1954 45.2937 12.1768C44.4129 12.9436 44.0585 13.4185 44.1847 14.2942Z" fill="#FFDAA6"/>
<path d="M25.0884 3.70593C25.5496 4.45203 18.4155 5.31857 14.0356 8.02625C9.65563 10.7339 9.67895 13.1152 6.81601 13.274C6.35477 12.5279 8.91224 8.58486 13.2922 5.87718C17.6721 3.16951 24.6271 2.95982 25.0884 3.70593Z" fill="white"/>
<path d="M6.06318 14.7487C6.31475 13.9085 6.5672 15.5961 7.34606 15.8293C8.12491 16.0625 8.89572 14.1665 8.88366 15.5932C8.6321 16.4334 7.41327 18.1653 6.63442 17.9321C5.85556 17.6989 5.81161 15.5889 6.06318 14.7487Z" fill="white"/>
<defs>
<filter id="filter0_n_47_1459" x="3.11743" y="19.059" width="70.0754" height="11.1715" filterUnits="userSpaceOnUse" color-interpolation-filters="sRGB">
<feFlood flood-opacity="0" result="BackgroundImageFix"/>
<feBlend mode="normal" in="SourceGraphic" in2="BackgroundImageFix" result="shape"/>
<feTurbulence type="fractalNoise" baseFrequency="1.1805446147918701 1.1805446147918701" stitchTiles="stitch" numOctaves="3" result="noise" seed="9329" />
<feComponentTransfer in="noise" result="coloredNoise1">
<feFuncR type="linear" slope="2" intercept="-0.5" />
<feFuncG type="linear" slope="2" intercept="-0.5" />
<feFuncB type="linear" slope="2" intercept="-0.5" />
<feFuncA type="discrete" tableValues="0 0 0 1 1 1 1 1 1 1 1 1 1 1 1 1 1 1 1 1 1 1 1 1 1 1 1 1 1 1 1 1 1 1 1 1 1 1 1 1 1 1 1 1 1 1 1 0 0 0 0 0 0 0 0 0 0 0 0 0 0 0 0 0 0 0 0 0 0 0 0 0 0 0 0 0 0 0 0 0 0 0 0 0 0 0 0 0 0 0 0 0 0 0 0 0 0 0 0 0 "/>
</feComponentTransfer>
<feComposite operator="in" in2="shape" in="coloredNoise1" result="noise1Clipped" />
<feComponentTransfer in="noise1Clipped" result="color1">
<feFuncA type="table" tableValues="0 0.04" />
</feComponentTransfer>
<feMerge result="effect1_noise_47_1459">
<feMergeNode in="shape" />
<feMergeNode in="color1" />
</feMerge>
</filter>
</defs>
</svg>
