<svg width="216" height="519" viewBox="0 0 216 519" fill="none" xmlns="http://www.w3.org/2000/svg">
<path d="M77.1563 434.543L43.9707 449.357L43.9707 68.2174L77.1562 83.0319L77.1563 434.543Z" fill="url(#paint0_linear_168_491)" stroke="black" stroke-width="1.65928"/>
<g filter="url(#filter0_n_168_491)">
<rect x="44.8008" y="66.9392" width="383.696" height="44.8005" transform="rotate(90 44.8008 66.9392)" fill="url(#paint1_linear_168_491)"/>
<rect x="43.9711" y="67.7688" width="382.037" height="43.1412" transform="rotate(90 43.9711 67.7688)" stroke="black" stroke-width="1.65928"/>
</g>
<rect x="118.637" y="67.7692" width="8.71089" height="74.6675" transform="rotate(90 118.637 67.7692)" fill="url(#paint2_linear_168_491)" stroke="black" stroke-width="1.65928"/>
<rect x="143.528" y="83.3235" width="8.71089" height="66.3711" transform="rotate(90 143.528 83.3235)" fill="url(#paint3_linear_168_491)" stroke="black" stroke-width="1.65928"/>
<rect x="118.637" y="441.095" width="8.71089" height="74.6675" transform="rotate(90 118.637 441.095)" fill="url(#paint4_linear_168_491)" stroke="black" stroke-width="1.65928"/>
<rect x="143.528" y="425.539" width="8.71089" height="66.3711" transform="rotate(90 143.528 425.539)" fill="url(#paint5_linear_168_491)" stroke="black" stroke-width="1.65928"/>
<path d="M249.72 444.832C221.476 453.137 198.199 452.9 163.435 479.806L162.612 39.1328C178.424 52.5669 199.999 61.4629 217.757 67.0284C226.908 69.8965 235.069 71.8871 240.943 73.1612C243.881 73.7983 246.247 74.2567 247.881 74.5557C248.671 74.7004 249.291 74.8074 249.72 74.8799L249.72 444.832Z" fill="#861313" stroke="black" stroke-width="1.65928"/>
<path d="M245.011 446.049C222.803 452.951 206.007 458.461 193.014 463.761C179.149 469.416 169.554 474.852 162.3 481.529L120.755 482.579C132.314 471.518 142.944 463.595 155.806 457.869C169.247 451.886 185.177 448.278 207.231 446.049L245.011 446.049Z" fill="#551010" stroke="black" stroke-width="1.65928"/>
<path d="M245.041 73.4032C197.308 58.6214 174.353 49.2316 159.827 35.8147L119.821 36.6312C131.789 48.2076 141.616 56.2363 153.789 61.9416C166.451 67.8757 181.709 71.3274 204.638 73.563L245.041 73.4032Z" fill="#F66E6E" stroke="black" stroke-width="1.65928"/>
<path d="M120.297 69.6009H119.467C111.358 69.6009 104.97 62.1083 104.97 53.1107C104.97 44.1132 111.358 36.6204 119.467 36.6204H120.297V69.6009Z" fill="#E44747" stroke="black" stroke-width="1.65928"/>
<path d="M120.297 100.925H119.467C111.358 100.925 104.97 93.4329 104.97 84.4352C104.97 75.4378 111.358 67.945 119.467 67.945H120.297V100.925Z" fill="#E44747" stroke="black" stroke-width="1.65928"/>
<path d="M120.297 135.092H119.467C111.297 135.092 104.97 126.889 104.97 117.178C104.97 107.466 111.297 99.2635 119.467 99.2635H120.297V135.092Z" fill="#E44747" stroke="black" stroke-width="1.65928"/>
<path d="M120.297 166.412H119.467C111.358 166.412 104.97 158.92 104.97 149.922C104.97 140.925 111.358 133.432 119.467 133.432H120.297V166.412Z" fill="#E44747" stroke="black" stroke-width="1.65928"/>
<path d="M120.297 197.734H119.467C111.358 197.734 104.97 190.241 104.97 181.244C104.97 172.246 111.358 164.753 119.467 164.753H120.297V197.734Z" fill="#E44747" stroke="black" stroke-width="1.65928"/>
<path d="M120.297 229.054H119.467C111.358 229.054 104.97 221.561 104.97 212.564C104.97 203.566 111.358 196.073 119.467 196.073H120.297V229.054Z" fill="#E44747" stroke="black" stroke-width="1.65928"/>
<path d="M120.297 260.375H119.467C111.358 260.375 104.97 252.883 104.97 243.885C104.97 234.888 111.358 227.395 119.467 227.395H120.297V260.375Z" fill="#E44747" stroke="black" stroke-width="1.65928"/>
<path d="M120.297 291.697H119.467C111.358 291.697 104.97 284.204 104.97 275.207C104.97 266.209 111.358 258.717 119.467 258.717H120.297V291.697Z" fill="#E44747" stroke="black" stroke-width="1.65928"/>
<path d="M120.297 325.865H119.467C111.297 325.865 104.97 317.662 104.97 307.951C104.97 298.239 111.297 290.037 119.467 290.037H120.297V325.865Z" fill="#E44747" stroke="black" stroke-width="1.65928"/>
<path d="M120.297 357.185H119.467C111.358 357.185 104.97 349.693 104.97 340.695C104.97 331.698 111.358 324.205 119.467 324.205H120.297V357.185Z" fill="#E44747" stroke="black" stroke-width="1.65928"/>
<path d="M120.297 388.507H119.467C111.358 388.507 104.97 381.014 104.97 372.017C104.97 363.019 111.358 355.526 119.467 355.526H120.297V388.507Z" fill="#E44747" stroke="black" stroke-width="1.65928"/>
<path d="M120.297 419.828H119.467C111.358 419.828 104.97 412.336 104.97 403.338C104.97 394.341 111.358 386.848 119.467 386.848H120.297V419.828Z" fill="#E44747" stroke="black" stroke-width="1.65928"/>
<path d="M120.297 451.149H119.467C111.358 451.149 104.97 443.656 104.97 434.658C104.97 425.661 111.358 418.168 119.467 418.168H120.297V451.149Z" fill="#E44747" stroke="black" stroke-width="1.65928"/>
<path d="M120.297 482.47H119.467C111.358 482.47 104.97 474.977 104.97 465.98C104.97 456.982 111.358 449.49 119.467 449.49H120.297V482.47Z" fill="#E44747" stroke="black" stroke-width="1.65928"/>
<path d="M206.578 446.421C186.99 448.164 171.766 451.193 158.145 456.783C144.822 462.25 133.077 470.146 120.296 481.608L120.296 37.6656C135.489 50.9696 147.872 59.1255 160.97 64.3766C174.273 69.7102 188.261 72.023 206.578 73.7457L206.578 446.421Z" fill="#E44747" stroke="black" stroke-width="1.65928"/>
<defs>
<filter id="filter0_n_168_491" x="0" y="66.9392" width="44.8008" height="383.696" filterUnits="userSpaceOnUse" color-interpolation-filters="sRGB">
<feFlood flood-opacity="0" result="BackgroundImageFix"/>
<feBlend mode="normal" in="SourceGraphic" in2="BackgroundImageFix" result="shape"/>
<feTurbulence type="fractalNoise" baseFrequency="0.43048009276390076 0.43048009276390076" stitchTiles="stitch" numOctaves="3" result="noise" seed="6271" />
<feColorMatrix in="noise" type="luminanceToAlpha" result="alphaNoise" />
<feComponentTransfer in="alphaNoise" result="coloredNoise1">
<feFuncA type="discrete" tableValues="0 0 0 0 0 0 0 1 1 1 1 1 1 1 1 1 1 1 1 1 1 1 1 1 1 1 1 1 1 1 1 1 1 1 1 1 1 1 1 1 1 1 1 0 0 0 0 0 0 0 0 0 0 0 0 0 0 0 0 0 0 0 0 0 0 0 0 0 0 0 0 0 0 0 0 0 0 0 0 0 0 0 0 0 0 0 0 0 0 0 0 0 0 0 0 0 0 0 0 0 "/>
</feComponentTransfer>
<feComposite operator="in" in2="shape" in="coloredNoise1" result="noise1Clipped" />
<feFlood flood-color="rgba(0, 0, 0, 0.25)" result="color1Flood" />
<feComposite operator="in" in2="noise1Clipped" in="color1Flood" result="color1" />
<feMerge result="effect1_noise_168_491">
<feMergeNode in="shape" />
<feMergeNode in="color1" />
</feMerge>
</filter>
<linearGradient id="paint0_linear_168_491" x1="60.5639" y1="66.9391" x2="60.5639" y2="450.635" gradientUnits="userSpaceOnUse">
<stop stop-color="#836050"/>
<stop offset="0.5" stop-color="#503B31"/>
<stop offset="1" stop-color="#1D1512"/>
</linearGradient>
<linearGradient id="paint1_linear_168_491" x1="44.8008" y1="89.3394" x2="428.497" y2="89.3394" gradientUnits="userSpaceOnUse">
<stop stop-color="#A36B52"/>
<stop offset="1" stop-color="#3D281E"/>
</linearGradient>
<linearGradient id="paint2_linear_168_491" x1="119.467" y1="103.195" x2="129.837" y2="103.195" gradientUnits="userSpaceOnUse">
<stop offset="0.216346" stop-color="#A36B52"/>
<stop offset="1" stop-color="#423732"/>
</linearGradient>
<linearGradient id="paint3_linear_168_491" x1="144.357" y1="114.808" x2="154.728" y2="114.808" gradientUnits="userSpaceOnUse">
<stop offset="0.216346" stop-color="#A36B52"/>
<stop offset="1" stop-color="#423732"/>
</linearGradient>
<linearGradient id="paint4_linear_168_491" x1="119.467" y1="476.52" x2="129.837" y2="476.52" gradientUnits="userSpaceOnUse">
<stop stop-color="#7F5440"/>
<stop offset="0.783654" stop-color="#3E291F"/>
</linearGradient>
<linearGradient id="paint5_linear_168_491" x1="144.357" y1="457.024" x2="154.728" y2="457.024" gradientUnits="userSpaceOnUse">
<stop stop-color="#7F5440"/>
<stop offset="0.783654" stop-color="#221915"/>
</linearGradient>
</defs>
</svg>
