<svg width="65" height="64" viewBox="0 0 65 64" fill="none" xmlns="http://www.w3.org/2000/svg">
<path d="M32.6099 27.8732C39.6412 27.8732 45.476 28.0596 49.5483 28.4132C51.5868 28.5902 53.1703 28.8081 54.2378 29.0616C54.7742 29.1891 55.1589 29.3207 55.4019 29.4493C55.5628 29.5346 55.618 29.5951 55.6362 29.6202C55.6322 29.6266 55.6276 29.636 55.6187 29.6466C55.5809 29.6912 55.509 29.753 55.3862 29.8263C55.141 29.9728 54.7547 30.1299 54.2192 30.2892C53.1526 30.6064 51.5698 30.9112 49.5337 31.1749C45.4657 31.7018 39.6351 32.0616 32.6099 32.0616C25.5791 32.0616 19.2196 31.8755 14.6216 31.5216C12.3206 31.3445 10.4717 31.1265 9.20361 30.8712C8.56661 30.743 8.09507 30.6089 7.79053 30.4747C7.64521 30.4107 7.55735 30.3531 7.5083 30.3107C7.55899 30.2619 7.65293 30.1978 7.80518 30.1222C8.11122 29.9702 8.58388 29.81 9.22021 29.6495C10.4875 29.3301 12.3352 29.0248 14.6343 28.7609C19.229 28.2333 25.5849 27.8732 32.6099 27.8732Z" fill="#700E0E" stroke="black" stroke-width="0.698013"/>
<path d="M36.4741 2.98956L37.8921 3.69855L37.9478 3.72687L37.9497 3.78937C38.6795 29.5677 38.6687 40.5894 37.9497 54.7523L37.9448 54.8519H32.854V3.85675L31.5161 3.18781L31.563 2.98956H36.4741Z" fill="#F58B35" stroke="black" stroke-width="0.209404"/>
<path d="M36.5503 54.1534L36.5532 54.0529L36.8042 47.2872C37.3318 32.2262 37.4394 21.6438 36.5532 3.08899L36.5493 2.98938H31.4517L31.4585 3.10071L31.689 6.67297C32.8405 24.0644 33.9231 34.7387 31.4595 54.0353L31.4438 54.1534H36.5503Z" fill="#FFCC00" stroke="black" stroke-width="0.209404"/>
<path d="M37.8452 54.8515L37.8921 54.6532L36.4741 53.9442H31.563L31.5161 54.1425L32.9341 54.8515H37.8452Z" fill="#F58B35" stroke="black" stroke-width="0.209404"/>
<path d="M56.4116 6.52486L56.3564 6.60791L54.9046 8.79619C47.751 19.6371 42.0434 29.271 30.252 50.3775L30.2216 50.4322L30.2549 50.485L31.0971 51.7992L31.1096 51.8202L35.3275 54.3358L35.4693 54.1896L34.6629 52.9298L60.7838 9.1325L56.4116 6.52486Z" fill="#F58B35" stroke="black" stroke-width="0.209404"/>
<path d="M57.2516 7.83867L57.1976 7.92356L53.5165 13.6057C45.3487 26.2707 39.8358 35.3042 31.0927 51.694L31.045 51.7815L35.4231 54.3927L35.4743 54.2936L37.1061 51.1075C45.0255 35.5809 49.5632 25.8588 61.5633 10.5478L61.6373 10.4543L57.2516 7.83867Z" fill="#FFCC00" stroke="black" stroke-width="0.209404"/>
<path d="M56.4971 6.57588L56.3553 6.72213L57.21 8.05736L61.4279 10.573L61.5697 10.4267L60.7151 9.09148L56.4971 6.57588Z" fill="#F58B35" stroke="black" stroke-width="0.209404"/>
<path d="M23.9844 0.895508L23.9893 0.995117L24.1152 3.61816C24.7062 16.5932 24.6734 27.7908 23.9893 51.958L23.9873 52.0205L23.9316 52.0488L22.5352 52.7461L22.5137 52.7578H17.6025L17.5557 52.5596L18.8984 51.8877L20.9873 26.4775L18.8945 1.00879L18.8848 0.895508H23.9844Z" fill="#F58B35" stroke="black" stroke-width="0.209404"/>
<path d="M22.5854 1.59357L22.5923 1.69025C23.9886 20.5406 24.3379 31.3659 22.5923 52.6619L22.5845 52.7576H17.478L17.4985 52.6356C18.3698 47.582 19.1551 38.6002 19.3296 29.0057C19.4986 19.7102 19.0942 9.84814 17.6431 2.4295L17.4995 1.71954L17.4731 1.59357H22.5854Z" fill="#FFCC00" stroke="black" stroke-width="0.209404"/>
<path d="M23.8848 0.895508L23.9316 1.09375L22.5137 1.80273H17.6025L17.5557 1.60449L18.9736 0.895508H23.8848Z" fill="#F58B35" stroke="black" stroke-width="0.209404"/>
<path d="M29.428 6.47964L29.4182 6.59293L27.3245 32.0617L29.4133 57.4709L30.7571 58.1437L30.7102 58.3419H25.7991L25.7776 58.3302L24.3811 57.633L24.3254 57.6046L24.3235 57.5421C23.5937 31.7638 23.6045 20.7419 24.3235 6.57925L24.3284 6.47964H29.428Z" fill="#F58B35" stroke="black" stroke-width="0.209404"/>
<path d="M25.7268 7.17767L25.72 7.27435C24.3236 26.1247 23.9744 36.95 25.72 58.246L25.7278 58.3417H30.8342L30.8137 58.2197C29.9424 53.1661 29.1571 44.1843 28.9827 34.5898C28.8137 25.2943 29.2181 15.4322 30.6692 8.01361L30.8127 7.30365L30.8391 7.17767H25.7268Z" fill="#FFCC00" stroke="black" stroke-width="0.209404"/>
<path d="M24.4277 6.47963L24.3809 6.67787L25.7988 7.38686H30.71L30.7568 7.18861L29.3389 6.47963H24.4277Z" fill="#F58B35" stroke="black" stroke-width="0.209404"/>
<path d="M34.8977 9.27167L34.9446 9.46991L33.6008 10.1418L31.512 35.551L33.6057 61.0207L33.6155 61.134H28.5159L28.511 61.0344C27.792 46.8716 27.7812 35.8498 28.511 10.0715L28.5129 10.009L28.5686 9.98065L29.9866 9.27167H34.8977Z" fill="#F58B35" stroke="black" stroke-width="0.209404"/>
<path d="M29.9141 60.4355L29.9072 60.3389C28.5109 41.4885 28.1616 30.6632 29.9072 9.36719L29.915 9.27148H35.0215L35.001 9.39355C34.1297 14.4471 33.3444 23.4289 33.1699 33.0234C33.0009 42.3189 33.4053 52.181 34.8564 59.5996L35 60.3096L35.0264 60.4355H29.9141Z" fill="#FFCC00" stroke="black" stroke-width="0.209404"/>
<path d="M28.6157 61.1336L28.5688 60.9353L29.9868 60.2263H34.8979L34.9448 60.4246L33.5269 61.1336H28.6157Z" fill="#F58B35" stroke="black" stroke-width="0.209404"/>
<path d="M64.5729 14.592L64.5127 14.7866L63.0139 14.6835L48.3176 35.5163L37.1944 58.5243L37.1453 58.6268L32.7514 56.0385L32.7977 55.9502C39.3666 43.3823 44.9514 33.8803 58.6641 12.0395L58.6975 11.9867L58.7598 11.9905L60.3414 12.0993L64.5729 14.592Z" fill="#F58B35" stroke="black" stroke-width="0.209404"/>
<path d="M34.3109 56.1466L34.3541 56.0598C42.7185 39.1093 47.912 29.6047 60.2248 12.1416L60.2801 12.0631L64.68 14.6549L64.6003 14.7496C61.2847 18.6616 56.0493 26.0019 51.0293 34.1803C46.1657 42.1037 41.5087 50.8063 38.9936 57.9349L38.757 58.6194L38.7157 58.7414L34.3109 56.1466Z" fill="#FFCC00" stroke="black" stroke-width="0.209404"/>
<path d="M32.8375 56.0887L32.8978 55.8941L34.4794 56.0029L38.7109 58.4955L38.6507 58.6901L37.0691 58.5813L32.8375 56.0887Z" fill="#F58B35" stroke="black" stroke-width="0.209404"/>
<path d="M54.8175 5.01719L54.8036 5.22042L53.321 5.46382L43.7948 29.1121L38.2454 54.0579L38.2211 54.169L33.3507 52.6575L33.3755 52.5609C36.8867 38.8214 40.1431 28.2918 48.4808 3.88806L48.5011 3.82894L48.5627 3.81839L50.1271 3.56155L54.8175 5.01719Z" fill="#F58B35" stroke="black" stroke-width="0.209404"/>
<path d="M34.8934 52.405L34.9155 52.3106C39.1691 33.8934 42.0441 23.4511 50.0234 3.62935L50.0592 3.54026L54.9362 5.0538L54.8804 5.1643C52.5504 9.73251 49.1382 18.0779 46.1278 27.1897C43.2113 36.0173 40.6744 45.5561 39.8615 53.0715L39.7881 53.7921L39.776 53.9202L34.8934 52.405Z" fill="#FFCC00" stroke="black" stroke-width="0.209404"/>
<path d="M33.4461 52.6867L33.4601 52.4835L35.0245 52.2266L39.715 53.6823L39.701 53.8855L38.1366 54.1423L33.4461 52.6867Z" fill="#F58B35" stroke="black" stroke-width="0.209404"/>
<path d="M12.0057 8.72382L16.8457 8.05452C19.4972 21.9814 21.0174 32.8945 23.8256 58.5291L18.9856 59.1984L12.0057 8.72382Z" fill="#F58B35"/>
<path d="M18.9856 59.1984L23.8256 58.5291L22.5383 59.4118L17.6983 60.0811L18.9856 59.1984Z" fill="#F58B35"/>
<path d="M16.9302 7.93735L16.9486 8.03535L17.4327 10.6164C19.7954 23.3882 21.2969 34.4847 23.9296 58.5178L23.9363 58.58L23.885 58.6157L22.5972 59.4977L22.5775 59.5122L17.7127 60.185L17.6391 59.995L18.8727 59.1491L11.8873 8.6347L16.9302 7.93735Z" stroke="black" stroke-width="0.209404"/>
<path d="M15.6447 8.81978L15.6614 8.91902L16.8368 15.5865C19.4225 30.4333 20.9787 40.9012 22.6425 59.4025L22.6523 59.5017L17.6027 60.2L17.5942 60.0888L17.3332 56.5186C16.0915 39.1333 15.7018 28.4114 10.6181 9.63418L10.5864 9.51927L15.6447 8.81978Z" fill="#FFCC00" stroke="black" stroke-width="0.209404"/>
<path d="M16.8315 7.951L16.9051 8.14095L15.5976 9.03749L10.7328 9.71022L10.6592 9.52027L11.9667 8.62373L16.8315 7.951Z" fill="#F58B35" stroke="black" stroke-width="0.209404"/>
<path d="M1.23785 11.8388L5.57033 9.57969C12.754 21.8019 17.8582 31.5669 29.1294 54.7612L24.7969 57.0203L1.23785 11.8388Z" fill="#F58B35"/>
<path d="M24.7969 57.0203L29.1294 54.7612L28.2143 56.0256L23.8818 58.2847L24.7969 57.0203Z" fill="#F58B35"/>
<path d="M5.61044 9.44093L5.66082 9.527L6.9853 11.7946C13.5083 23.0263 18.6565 32.9703 29.2236 54.7156L29.2508 54.7719L29.2145 54.8228L28.2986 56.0867L28.285 56.107L23.9303 58.3777L23.7971 58.2236L24.6741 57.0119L1.09643 11.7947L5.61044 9.44093Z" stroke="black" stroke-width="0.209404"/>
<path d="M4.69642 10.7046L4.74553 10.7924L8.09617 16.6755C15.5275 29.7861 20.5157 39.1197 28.3088 55.9819L28.3514 56.0721L23.8313 58.429L23.7859 58.3271L22.3386 55.053C15.3186 39.0997 11.3434 29.1343 0.237044 13.1631L0.168556 13.0656L4.69642 10.7046Z" fill="#FFCC00" stroke="black" stroke-width="0.209404"/>
<path d="M5.52212 9.48699L5.65534 9.64109L4.72583 10.9253L0.371146 13.196L0.237924 13.0419L1.16743 11.7577L5.52212 9.48699Z" fill="#F58B35" stroke="black" stroke-width="0.209404"/>
<path d="M44.6831 7.14315L44.6776 7.24273L44.5304 9.86467C43.7704 22.8308 42.5747 33.9645 39.3838 57.9299L39.3753 57.9919L39.317 58.0143L37.8557 58.5627L37.8331 58.5721L32.9485 58.062L32.9225 57.8599L34.3226 57.3336L39.6198 6.61433L44.6831 7.14315Z" fill="#F58B35" stroke="black" stroke-width="0.209404"/>
<path d="M43.2234 7.69249L43.2158 7.79284L42.7627 14.5479C41.7229 29.5823 40.7307 40.1186 37.9219 58.481L37.9076 58.5797L32.8376 58.0501L32.8559 57.9401L33.4562 54.4111C36.4081 37.2333 38.5937 26.7293 38.1478 7.2812L38.1446 7.16205L43.2234 7.69249Z" fill="#FFCC00" stroke="black" stroke-width="0.209404"/>
<path d="M44.584 7.1328L44.6101 7.33484L43.1261 7.8927L38.2416 7.38254L38.2155 7.1805L39.6995 6.62265L44.584 7.1328Z" fill="#F58B35" stroke="black" stroke-width="0.209404"/>
<path d="M55.3706 30.0454C52.1642 36.0732 50.5273 40.9936 49.8667 46.104C49.1999 51.2628 49.5292 56.5963 50.2124 63.4204C37.1382 61.7894 29.3879 62.4323 15.9487 63.4448C15.7946 50.5126 12.774 43.2125 7.67725 30.6694C27.4343 33.1059 34.9764 32.5248 55.3706 30.0454Z" fill="#D41C1C" stroke="black" stroke-width="0.698013"/>
</svg>
